<?xml version="1.0" encoding="utf-8"?>
<!-- Generator: Adobe Illustrator 24.0.1, SVG Export Plug-In . SVG Version: 6.00 Build 0)  -->
<svg version="1.1" xmlns="http://www.w3.org/2000/svg" xmlns:xlink="http://www.w3.org/1999/xlink" x="0px" y="0px"
	 viewBox="0 0 726 652.8" style="enable-background:new 0 0 726 652.8;" xml:space="preserve">
<style type="text/css">
	.st0{fill:#2A2A2A;}
	.st1{fill:#FFFFFF;}
	.st2{fill:#2D2D2D;}
	.st3{fill:#EB2538;}
	.st4{fill:#BD1E2D;}
	.st5{fill:#2C2C2C;}
	.st6{fill:#EFEFEF;}
	.st7{fill:#2E2E2E;}
	.st8{fill:#2F2F2F;}
	.st9{fill:#D4EC07;}
	.st10{fill:#303030;}
	.st11{fill:#CACACA;}
</style>
<g id="Capa_2">
</g>
<g id="Capa_1">
	<g id="XMLID_1_">
		<g>
			<path class="st0" d="M726,539.5c0.6,2.7,0.2,5.6-0.7,8.4c-1.6,4.8-2.8,9.8-4.5,14.7c-1.2,3.5-2.9,6.9-4.3,10.4
				c-0.4,1-0.6,2.1-1,3.1c-2.4,6.9-4.8,13.8-7.2,20.7c-2.3,6.5-10.7,12.3-17.6,11.7c-3.8-0.3-7.8,0-11.6-0.1
				c-4.8-0.1-8.7-2.1-11.9-5.6c-0.8-0.9-1.7-1.6-2.8-2.5c-1.1,1-2.2,2-3.2,3c-2.9,2.9-6.1,4.1-10.3,4.5c-5.1,0.5-10.2,0.6-15.2,0.5
				c-3.7-0.1-7.6-0.3-10.3-3.8c-2.7,0.8-5.5,1.4-8,2.6c-2.4,1.1-4.7,1.3-7.2,1.3c-10,0-20,0-30,0c-6.6,0-12.8-1.4-18.3-5.3
				c-2.7,1.5-5.3,3-8.1,4.2c-1.5,0.7-3.3,1-5,1c-4.9,0.1-9.8,0.2-14.6,0c-4.7-0.2-8.8-1.9-11.7-6c-0.5-0.7-1.3-1.2-2-1.8
				c-2,1.9-3.7,3.4-5.4,4.9c-0.4,0.3-0.8,0.7-1.2,0.7c-3.6,0.4-6.8,2.5-10.6,2.2c-2.9-0.2-5.8-0.1-8.6,0c-7,0.2-12.5-2.5-16.2-8.5
				c-0.1-0.1-0.2-0.2-0.3-0.2c-1-0.1-2-0.1-2.9-0.2c-0.4,0.2-0.7,0.4-1,0.6c-6.3,5.2-13.6,7.7-21.8,7.6c-9.5-0.1-19-0.1-28.5,0
				c-7.2,0.1-13.9-0.9-19.9-5.4c-5.1,4.8-11.3,6.1-18,6.1c-2.4,0-4.8-0.1-7.1,0c-5.6,0.2-10.4-1.4-14-5.9c-3.3,0-6.6,0-9.8,0
				c-2.1,0-3.9,0.3-5.4,2.3c-0.9,1.2-2.6,1.8-4.4,2.3c-6.3,2-12.8,1.1-19.1,1.2c-3.9,0.1-7.6-1.1-10.8-3.6c-0.4-0.3-0.8-0.6-1.2-0.9
				c-0.1-0.1-0.2-0.1-0.4-0.1c-0.5-1.1-1-2.2-1.5-3.4c-2.6,0-5.2,0-7.6,0c-2.1,1.7-4,3.7-6.1,4.9c-3,1.7-6.3,3.1-9.8,3.1
				c-14.5,0-29,0.1-43.5,0c-2.6,0-5.3-0.5-7.8-2.3c-7.8,3-16.2,2.5-24.5,2.2c-4-0.1-7.7-1.7-10.3-5c-0.5-0.7-0.9-1.5-1.5-2.6
				c-1.6,1.3-2.4,2-3.2,2.7c-3.4,3.4-7.7,4.6-12.3,4.9c-4.6,0.3-9.3,0.3-13.9,0c-2.8-0.2-5.6-0.7-8.1-1.9c-2-0.9-3.4-3-5.1-4.6
				c-0.2-0.1-0.4-0.2-0.9-0.3c-2.3,3-5.8,4.3-9.1,5.9c-1.9,0.9-4.3,0.8-6.5,0.9c-3.8,0.1-7.5,0-11.3,0c-6.4,0.1-11.5-2.2-14.7-8
				c-1.9,0-3.7,0-5.7,0c-1.1,1-2.2,2.2-3.4,3.2c-2.5,2-5.3,3.8-8.4,4.1c-5.9,0.6-11.9,0.8-17.8,0.7c-5.8-0.1-10.1-3.1-13.1-8
				c-3.1,0-6.1,0-9.2,0c-1.8,1.5-3.6,3.2-5.5,4.7c-3,2.3-6.5,3.4-10.2,3.4c-4.9,0.1-9.8,0.2-14.6,0c-7.1-0.4-12.2-4.3-14-11.1
				c-0.7-2.8-1.4-5.6-1.5-8.6c0-2.6-1.2-5.1-1.6-7.7c-0.5-3-0.8-6-1.3-9c-0.3-1.7-0.9-3.3-1.2-4.9c-0.7-3.8-1.3-7.6-2-11.7
				c-4-3.2-6-7.3-6-13c0-5.8,3.1-9.4,7.6-13.3c9.2-1.4,19.4-0.6,29.6-0.5c2.6,0,5.8-0.1,7.9,2.4c2.2,2.7,4.3,5.4,4.7,9.2
				c1.3,0.1,2.6,0.2,3.8,0.2c2.9-3.7,5.4-7.6,9.4-9.9c2.9-1.7,6.3-2.1,9.6-2.1c8.4,0,16.8,0,25.1,0c41,0,82,0,123,0
				c1.2,0,2.5,0,3.9,0c0.4-0.6,0.8-1.2,1.3-2c-10.9-9.8-20.8-20.5-29.2-33.3c-0.8,1.2-1.3,1.9-1.6,2.6c-1.1,3.8-3.1,7.3-3.4,11.3
				c-0.1,1-1.4,1.9-1.9,3c-1.8,3.8-5.1,6.7-8.6,7.9c-3.4,1.2-7.1,2.7-11.2,1.6c-7.2-1.9-12.1-6.1-14.8-12.8c-1-2.4-1.7-5.1-1.9-7.7
				c-3.4-20.7-7.8-41.4-11.7-63.9c-0.9-5-1.9-10-2.7-15c-0.7-4-1.1-8-1.8-12c-0.2-1-0.9-1.9-1.4-2.9c-2.9,1.8-3.1,5.1-4.2,7.7
				c-1.5,3.4-2.7,6.8-3.8,10.3c-1.7,5.4-5.1,9.2-10.4,11.2c-0.8,0.3-1.4,1-2.2,1.6c-27.9,0-55.9,0-83.9,0c-3,0-6,0.1-9-0.2
				c-1.6-0.1-3.3-0.7-4.7-1.5c-4.9-2.7-8.1-6.7-9.7-12.1c-2.3-7.9,0-14.3,5.6-19.7c3.4-3.3,7.8-4.5,12.4-4.7c4.6-0.2,9.3,0,13.9,0
				c17.5,0,35,0,52.5,0c1.3,0,2.5,0,3.8,0c0.5-1.5,0.7-3,1.5-4.1c2.3-4.8,3.7-11.5,7.5-19.2c2.6-6.8,5.1-13.7,7.7-20.5
				c2.5-6.5,5.1-13,7.6-19.5c1.3-3.5,2.5-7,3.8-10.5c4.7-12.3,16.3-14.9,26.9-10.7c2.3,0.9,5.3,2.1,6.4,5.2c0.3,0.9,1.1,1.6,2.1,2.8
				c-0.1,0.1-0.2,0.4-0.1,0.5c2.8,6,3.1,12.6,4.3,19c1.4,7.5,2.9,15,4.4,22.5c0.8,4.3,1.5,8.5,2.3,12.8c0.1,0.8,0.6,1.5,1.3,3
				c0.8-2.4,1.6-4,1.9-5.7c1.3-7.9,4.1-15.2,7-22.6c3.6-9.1,8.8-17.4,14-25.6c1.6-2.5,3.5-4.8,5.2-7.1c6-8,12.6-15.6,18.7-23.5
				c5.5-7,10.9-14.2,14.9-22.3c1.3-2.8,1.3-5.4,0.2-8.1c-2.4-6.1-5.7-11.6-9.2-17.1c-6.2-9.9-12.5-19.6-18.6-29.6
				c-4-6.6-7.8-13.2-11.5-20c-37.1-75-28.7-119.7,29.7-167.9c65.4-41.1,177.6-36.3,233.4-5c5,1.9,8.5,5.8,12.3,9.2
				c2,1.8,4.4,3,6.3,4.9c3.7,3.7,7.1,7.7,10.8,11.4c45.4,48.7,28.6,104.4,3.4,152.4c-65.8,92.1-7.6,63.2,17,143.5
				c1.6,4.3,2.7,8.7,3.9,13.1c0.6,2.1,0.9,4.4,1.3,6.5c-0.9-0.1-1.8,0-2.6-0.4c-5.4-2.7-11-4.3-17.1-4.2c-6.4,0.1-12.6,0.4-18.9,2.8
				c-7.3,2.8-13.2,7.2-18.4,12.6c-2.1,2.2-4,4.7-6.1,7.2c-0.5-0.4-0.9-0.6-1.2-1c-2.2-2.8-3.9-5.9-6.5-8.3c-2.9-2.7-6-5.3-9.5-7.4
				c-2.9-1.7-5.8-3.1-8.9-4c-3.2-0.9-8.4-0.7-12-0.4c-4.2,0.3-28.8,5.1-32.1,7.9c-5.4,4.5-10.3,9.5-13.3,16.1
				c-2.5,5.6-5.1,11.2-5.1,17.6c0,0.9-0.1,1.7-0.1,2.6c-10.9,0-21.8,0-32.6,0c-4.7,0-7.3,1.7-8.8,6c-3.3,9.3-6.4,18.6-9.6,27.8
				c-1,3-2.3,5.9-3.7,9.6c-1.3-5.6-2.5-10.4-3.6-15.1c-3.1-13.7-6.1-27.4-9.1-41.1c-2.5-11.3-5-22.6-7.5-33.8c-0.8-3.7-3-6-6.9-6.9
				c-3.9-0.9-6.5,0.9-8.7,3.7c-0.6,0.8-0.9,1.8-1.2,2.7c-2.4,7.4-4.8,14.9-7.3,22.3c-2.7,8.1-5.5,16.3-8.2,24.4
				c-1.1,3.3-2.2,6.6-3.3,9.9c-6.7,0-13,0-19.6,0c-1.6-5.2-3.2-10.2-4.8-15.3c-1.8-5.8-3.5-11.6-5.4-17.4c-1.2-3.6-4.3-5.8-7.9-5.8
				c-3.5-0.1-6.5,2-7.9,5.6c-0.6,1.4-1.1,2.8-1.6,4.2c-4.6,13.5-9.2,27.1-13.8,40.6c-3.8,11.3-7.7,22.6-11.6,33.8
				c-0.4,1.1-1,2.1-1.8,3.6c-1.7-9-3.2-17.5-4.8-25.9c-2-10.8-3.9-21.5-5.9-32.3c-1.7-9.4-3.5-18.8-5.2-28.2
				c-1.8-9.8-3.6-19.6-5.3-29.4c-1.2-6.7-2.5-13.4-3.7-20.2c-0.7-3.8-3.4-7-6.8-7.5c-4.3-0.7-7.8,1-9.6,4.9
				c-0.8,1.8-1.3,3.7-2.1,5.6c-7.5,19.6-14.9,39.3-22.4,58.9c-2.1,5.4-4.3,10.8-6.5,16.2c-1,1.5-2.5,0.7-3.7,0.7
				c-23.7,0-47.4,0.1-71.1,0c-3.1,0-5.9,0.6-8.5,2.3c-2.5,3.3-3.2,6.9-1.3,10.5c1.9,3.6,5.3,4.4,9.2,4.4c26.6-0.1,53.2-0.1,79.8,0
				c4.4,0,8.4-2.3,9.8-6.9c1-3.4,2.5-6.7,3.8-10.1c3.7-9.8,7.4-19.5,11.1-29.3c2-5.3,4.1-10.6,6.4-16.4c0.5,1.1,0.8,1.6,0.9,2.1
				c0.7,3.9,1.2,7.9,1.9,11.8c1.9,10.9,4,21.8,6,32.6c2,10.9,4,21.8,6,32.6c1.7,9,3.5,18.1,5.1,27.1c1.5,8.2,3,16.4,4.5,24.6
				c0.5,2.7,0.9,5.4,1.6,8c1,4,4,6.3,8.1,6.4c4.5,0.2,7.2-2,8.8-6.6c3.6-10.4,7.2-20.9,10.8-31.4c5.5-16.1,10.9-32.2,16.4-48.3
				c0.8-2.3,1.6-4.6,2.8-7.8c0.8,2.2,1.4,3.6,1.8,5c0.8,2.6,1.5,5.3,2.4,7.8c1.5,4.4,4,6.2,8.6,6.2c10.4,0,20.8,0,31.1,0
				c4.4,0,7.4-2,8.8-6.1c2.2-6.5,4.1-13,6.3-19.5c1.4-4.4,3-8.8,4.5-13.2c0.9,2,1.2,4,1.6,5.9c3.1,13.7,6.2,27.4,9.2,41.1
				c1.9,8.5,3.8,17,5.7,25.5c1.2,5.6,2.5,11.2,3.8,16.7c1,4.3,4.1,6.6,8.3,6.6c4.2,0,6.9-2,8.5-6.5c2-5.6,4.1-11.2,6-16.9
				c4.2-12.2,8.4-24.5,12.6-36.7c0.7-2.1,1.6-4.1,2.4-6.3c9.8,0,19.2,0,28.7,0c2.1,0.3,1.1,2.1,1.6,3.3c2.5,5.4,4.7,10.9,7.8,16
				c3.9,6.5,8.7,12.6,13.8,18.3c7.3,8.3,15.8,15.4,24.1,22.6c2.3,2,4.7,3.9,7.1,5.7c0.4,0.3,1.2,0.3,1.8,0.4
				c2.9,2.4,5.7,5.1,8.8,7.2c5.2,3.5,10.6,6.8,16,10.1c2.1,1.3,4.3,2.4,6.2,3.5c4.2-2.6,8-5,11.9-7.4c3-1.9,6.1-3.6,9-5.6
				c2.8-1.9,5.4-4.1,8.2-6c3.5-2.3,6.8-4.9,10.1-7.6c2.7-2.3,5.8-4.2,8.6-6.4c0.1-0.1,0.3-0.2,0.4-0.4c-3.5,7.4-6.4,11.8-7.2,12.9
				c-2.6,3.5-4.5,7.4-6.9,11c-1.8,2.7-3.6,5.6-6.1,7.5c-1.9,1.5-2.1,3.8-4,5.1c-1.8,1.3-3.2,3.1-4.9,4.6c-2.1,2-4.2,4-6.4,5.8
				c-1.1,1-1.5,1.4-1.7,3.7c1.3,0,2.5,0.1,3.7,0c5.4-0.5,10.8,0.6,16.2,0.1c5.5-0.5,11-0.1,16.5-0.1c5.5,0,11,0,16.5,0
				c17.9,0,35.7,0,53.6,0c3.2,0,6.4,0.3,9.1,2.3c1.3,1,2.7,1,4.2,0.4c2-0.8,4.1-1.5,6.1-2.3c0.6-0.2,1.2-0.4,1.8-0.4
				c14.1,0,28.2,0,42.3,0.1c1.7,0,3.5,0.2,5,0.9c2.5,1,4.8,0,7.2-0.3c1.8-0.2,3.7-0.6,5.5-0.7c6.8-0.1,13.5,0.1,20.3-0.1
				c3.9-0.1,7.3,1.4,10.5,3.2c1.3,0.7,2,2.3,3.1,3.6c0.6-0.5,1.2-0.9,1.5-1.4c2.7-4.1,6.9-5.2,11.4-5.4c5.9-0.2,11.8-0.2,17.6,0
				c2.6,0.1,5.2,0.3,7.7,1.9C723.8,532.6,725.2,535.9,726,539.5z M712.5,542.4c-6.2,0-11.7,0-17.5,0c-3.1,10.7-8.3,20.6-8.9,31.9
				c-0.3,0-0.5,0.1-0.8,0.1c-5.2-10.7-10.4-21.3-15.6-32.1c-8,0.2-15.6-0.2-23.5,0.9c1.5,1.2,2.9,2.5,4.6,3.9
				c-5.4,15.4-10.8,30.8-16.1,46.2c4,0.8,14.4,0.7,17.5-0.3c3.3-9.7,6.8-19.5,10.3-29.8c5.4,10.5,10.6,20.5,15.7,30.4
				c5.5,0,10.7,0,16.6,0C700.7,576.5,706.6,559.6,712.5,542.4z M637.1,554.1c1.8-5.5-0.2-9.5-5.5-11.2c-1.4-0.5-3-0.5-4.4-0.5
				c-5.5-0.1-11,0-16.5,0s-11,0-16.5,0c-0.3,0-0.5,0-0.8,0c-6.8,0-13.7,4.5-16,11.4c-1.6,4.9-3.4,9.6-5.1,14.4
				c-1.7,4.8-3.4,9.6-4.9,14.5c-1.5,4.7,0.4,8.4,5.1,10.1c1.4,0.5,2.9,0.9,4.4,0.9c11.7,0.1,23.5,0.1,35.2,0c4.3,0,8.1-1.7,11-4.8
				c1.6-1.8,3.2-3.9,4.1-6.2C630.6,573.2,633.9,563.7,637.1,554.1z M568.9,542.3c-8.2-0.2-15.9-0.4-23.7,0.9
				c1.5,1.1,3.1,2.3,4.9,3.6c-5.4,15.5-10.8,30.9-16.3,46.6c5.9,0,11.4,0,17.2,0C556.9,576.5,562.8,559.7,568.9,542.3z M540.8,542.3
				c-1.7,0-2.9,0-4.2,0c-4.7,0-9.5,0-14.2,0c-12.6,0-25.2,0-37.8,0c-1.2,0-2.6-0.4-4,0.9c1.9,1.2,3.6,2.3,5.4,3.4
				c-1,2.7-1.9,5.2-3,8.1c7.3,0,14.1,0,21.3,0c-4.5,13.1-8.9,25.8-13.4,38.8c5.9,0,11.4,0,17.1,0c4.3-11,7.7-22.1,11.6-33
				c-1.3-2.1-4.1-2.7-4.5-5.7c1.3-0.1,2.4-0.2,3.5-0.2c4.9,0,9.7,0,14.6,0c1.7,0,3.4-0.2,4-2C538.4,549.4,539.5,546.2,540.8,542.3z
				 M479.9,553.2c1.2-3.5-0.3-7.1-3.4-9.1c-2.1-1.3-4.3-1.8-6.8-1.8c-5.6,0-11.2,0-16.9,0v0c-5.5,0-11-0.1-16.5,0
				c-1.8,0-3.7,0.4-5.5,0.9c-5.9,1.6-9.5,5.7-11.5,11.3c-2.4,6.8-4.7,13.7-7,20.5c-0.9,2.7-2,5.4-2.7,8.1c-1.1,4.5,0.7,8,5,9.5
				c1.8,0.7,3.9,0.9,5.9,1c4,0.1,8,0,12,0c7.3,0,14.5,0.1,21.7-0.1c7.2-0.2,12.5-3.9,15-10.5C473.2,573.3,476.5,563.3,479.9,553.2z
				 M474.8,60.6c0.1-2.7-2.5-5.3-5.2-5.3c-2.7-0.1-5.3,2.6-5.3,5.3c0,2.6,2.3,5,5,5.1C472.1,65.7,474.7,63.4,474.8,60.6z
				 M457.5,55.5c5.1,0.3,7.2-2.7,5.2-7.4c-1.4-3.3-3.5-6-6.2-8.3c-7.3-6.1-15.5-10.4-24.3-13.7c-10.3-3.9-21-6.4-31.7-8.5
				c-12.4-2.5-24.8-4.4-37.4-5.4c-14.4-1.2-28.7-0.3-43,1.5c-9.7,1.2-19.4,3.3-29,5.5c-16.8,3.7-32.7,9.7-47.4,18.8
				c-6.1,3.8-11.9,8.2-16.9,13.7c1-0.2,2.2-0.3,3.1-0.7c7.1-3,14.1-6.2,21.3-9c8.6-3.3,17.2-6.7,26-9.4c17.1-5.4,34.5-8.9,52.4-9.9
				c15-0.8,29.9-0.1,44.8,2.2c12.8,2,25.4,5.3,37.6,9.6c8.9,3.2,17.7,6.8,25.6,12.2c4,2.7,8.3,5.1,12.7,7.2
				C452.5,54.8,455.1,55.3,457.5,55.5z M456.3,129.6c3.1-22-5.3-39.6-23.1-52.7c-9.8-7.2-21.1-11.2-32.8-14.1
				c-17.9-4.5-36.1-6.7-54.5-6.3c-4.3,0-8.5-0.3-12.7,0.1c-8.6,0.8-17.2,1.5-25.6,2.9c-8.2,1.4-16.4,3.2-24.4,5.5
				c-6.1,1.7-12.1,4-17.8,6.8c-14.7,7.2-25,18.8-31.6,33.7c-4.6,10.4-6.2,21.3-4,32.6c1.9,9.9,6.8,18.4,13.7,25.8
				c8,8.5,17.5,15.2,27.5,21.1c3.5,2.1,7.3,3.8,11.1,5.3c8.1,3,16.5,2.8,24.8,1.1c8.5-1.8,17-3.9,25.5-5.8c8-1.8,16-2.8,24.1-1.4
				c5,0.9,10,1.8,15,2.8c16.3,3.4,32.1,1.9,47-5.6C439.9,170.4,453,153.3,456.3,129.6z M411.2,542.6c-5.9,0-11.3,0-16.6,0
				c-9.8,10.4-19.6,20.7-29.5,31.1c-0.3-0.1-0.6-0.2-0.9-0.3c1.2-5.1-0.4-9.7-1.9-14.3c-0.6-1.8-1.1-3.6-1.6-5.4
				c-1.2-3.8-2.4-7.5-3.6-11.2c-9.3-0.7-18.9-0.4-21.1,0.7c1.6,1.2,3.2,2.4,4.9,3.7c-2.8,7.9-5.6,15.6-8.2,23.4
				c-2.6,7.7-5.7,15.3-7.9,23.3c5.9,0,11.3,0,17.1,0c2.3-6.5,4.6-12.9,7.2-20c1.8,5.4,3.4,10,5,14.8c3.7,0,7.3-0.1,10.9,0
				c2,0.1,3.6-0.6,5-2c3.2-3.2,6.4-6.3,9.6-9.5c0.6-0.6,1.3-1,2-1.5c0.2,0.1,0.5,0.2,0.7,0.4c-1.6,6-4.3,11.7-5.9,17.9
				c5.8,0,11.1,0,17.1,0C399.3,576.5,405.2,559.8,411.2,542.6z M321.8,258.7c2.4-0.5,4.8-0.9,8-1.5c-8.6-2.1-16.3-1.3-24.1,0.6
				c-7.7,1.9-15.3,4.3-23.3,5.3c-8,1-15.1-0.6-21.6-5.3c-6-4.4-11-9.7-15.6-15.5c-1.1-1.4-2.1-2.9-4.5-4c2,3.9,3.8,7,5.2,10.4
				c3.6,8.9,4.7,18,1.3,27.4c-2.3,6.3-6.1,11.7-10.7,16.5c-8.4,8.7-16.7,17.5-23.8,27.4c-8,11.2-14.8,23.1-19.7,36
				c-4,10.4-6.6,21.2-8.1,32.2c-0.9,6.7-1.2,13.4-0.7,20.9c0.6-1.5,1-2.2,1.3-3c2.7-7.9,5.5-15.8,8.1-23.7c1.6-4.7,3.8-8.9,8-11.8
				c1-0.7,1.8-2,2.3-3.2c0.9-2.3,1.4-4.8,2.1-7.2c4.3-12.9,10.1-24.9,17.8-36.1c8.6-12.6,18.3-24.1,30.6-33.1
				c12.1-8.9,25.1-16.3,38.8-22.5C302.4,264.3,311.8,260.7,321.8,258.7z M295.7,581.4c-10.9,0-21.5,0-32,0c-0.1-0.3-0.2-0.6-0.3-0.9
				c0.5-0.6,0.8-1.3,1.4-1.6c2.3-1.6,3.3-3.9,4.1-6.4c2.5-7.4,5.2-14.8,7.8-22.2c0.9-2.5,1.6-4.9,2.6-7.9c-2.9,0-5.5,0-8,0
				c-2.6,0-5.3-0.1-7.9,0c-2.5,0.1-5-0.5-8.1,0.6c2.1,1.6,3.6,2.8,5.2,4c-5.4,15.6-10.8,31-16.1,46.4c4.4,0.7,43.8,0.6,47.1-0.2
				C292.8,589.5,294.2,585.7,295.7,581.4z M248.1,528.4c0.5,0,1,0,2.2-0.1c-9.8-10.1-18-20.6-25-32c-7-11.5-12.7-23.6-17.6-36.2
				c-1.9,4.7-3.6,9.3-5,14c-0.3,1,0.2,2.5,0.7,3.5c7.3,13.6,16.1,26.1,26.5,37.5c4.3,4.7,8.9,9,13.2,13.3
				C245.1,528.4,246.6,528.4,248.1,528.4z M242.8,556.8c1.6-4.7,3.2-9.3,4.8-14c-4.6-0.8-62.6-0.6-65.8,0.3c1.9,1.4,3.5,2.7,5.1,4
				c-5.4,15.5-10.7,30.9-16.2,46.5c5.9,0,11.3,0,16.8,0c2.7-3.7,2.8-8.4,4.9-11.8c8.4,0,16.4,0,24.8,0c-1.4,4.1-2.8,7.8-4.3,12
				c5.1,0,9.6,0,14.1,0c3.3,0,3.7-0.4,4.7-3.6C235.4,579,239.1,567.9,242.8,556.8z M207.5,79.1c-0.6,0.3-1.3,0.5-1.7,0.9
				c-1.6,1.8-3,3.6-4.5,5.5c-11.5,14.7-15.5,31.5-13.3,49.9c1.3,10.2,4.5,19.9,9.1,29.1c0.1,0.3,0.4,0.6,0.6,0.9
				c0.5-0.2,0.9-0.4,1.3-0.6C188.9,135,191.3,106.6,207.5,79.1z M178.4,542.6c-1.4-0.1-2.2-0.3-3-0.3c-3.1,0-6.3,0-9.4,0
				c-14.6,0-29.2,0-43.8,0c-1.2,0-2.7-0.5-3.9,0.9c1.9,1.3,3.6,2.4,5.3,3.5c-1,2.7-1.9,5.1-2.9,7.9c7.3,0,14.1,0,21.4,0
				c-4.5,13.1-8.9,25.7-13.5,39c6.1,0,11.6,0.2,17.4-0.2c3.9-11.2,7.7-22.2,11.5-33.2c-1.1-1-2-1.8-2.8-2.6c-0.7-0.7-1.9-1.3-1.6-3
				c1.1-0.1,2.2-0.2,3.3-0.2c4.9,0,9.7,0,14.6,0c1.4,0,3,0.1,3.6-1.4C175.9,549.9,177.1,546.4,178.4,542.6z M115.5,542.1
				c-7.9,0-15.1,0-22.3,0c-0.5,0-1.1,0.4-1.9,0.8c1.9,1.4,3.5,2.5,5.4,3.8c-5.4,15.5-10.8,31-16.4,46.9c5.9-0.1,11.4,0.3,17.3-0.3
				C103.5,576.5,109.3,559.7,115.5,542.1z M89,542.5c-1.9-0.1-3.2-0.3-4.5-0.3c-3.5,0-7,0.3-10.5,0.1c-2.7-0.2-4.4,1-6,2.9
				c-8.4,10.1-16.9,20.1-25.3,30.1c-0.6,0.7-1.4,1.3-2.7,2.5c-0.2-6.5,1.1-12.3-0.4-18.1c-1.6-5.7-2.3-11.6-3.3-17.4
				c-11.1-0.8-20-0.4-22.3,0.9c1.7,1.2,3.3,2.3,5.2,3.5c2.7,15.5,5.5,31.2,8.2,46.9c5.3,0,10.2,0,15.1,0c1.8,0,3-0.9,4.1-2.2
				c9.3-10.8,18.6-21.5,27.9-32.3C79.1,553.8,83.9,548.4,89,542.5z"/>
			<path class="st1" d="M695,542.4c5.8,0,11.3,0,17.5,0c-6,17.2-11.8,34.1-17.7,51.2c-5.9,0-11.1,0-16.6,0
				c-5.1-9.9-10.3-19.9-15.7-30.4c-3.6,10.3-7,20.1-10.3,29.8c-3,1-13.4,1.2-17.5,0.3c5.4-15.4,10.7-30.8,16.1-46.2
				c-1.7-1.4-3.1-2.6-4.6-3.9c7.9-1.1,15.5-0.7,23.5-0.9c5.2,10.7,10.4,21.4,15.6,32.1c0.3,0,0.5-0.1,0.8-0.1
				C686.8,563,691.9,553.1,695,542.4z"/>
			<path class="st1" d="M631.5,542.9c5.3,1.8,7.3,5.7,5.5,11.2c-3.2,9.6-6.4,19.1-9.9,28.6c-0.8,2.3-2.4,4.4-4.1,6.2
				c-2.9,3.2-6.7,4.8-11,4.8c-11.7,0.1-23.5,0-35.2,0c-1.5,0-3-0.4-4.4-0.9c-4.7-1.7-6.5-5.4-5.1-10.1c1.5-4.9,3.2-9.7,4.9-14.5
				c1.7-4.8,3.5-9.6,5.1-14.4c2.2-6.9,9.2-11.4,16-11.4c0.3,0,0.5,0,0.8,0c5.5,0,11,0,16.5,0s11,0,16.5,0
				C628.6,542.4,630.2,542.4,631.5,542.9z M619.6,555.1c-0.8-0.2-1.3-0.4-1.8-0.4c-9.9,0.1-19.7,0.1-29.5,0.2
				c-0.1,0-0.2,0.1-0.3,0.2c-0.1,0.1-0.1,0.2-0.4,0.7c1.5,1.5,3,3,4.5,4.6c-1.9,7-4.8,13.6-6.6,20.8c8.5,0,16.6,0,24.9,0
				C613.5,572.5,616.5,563.9,619.6,555.1z"/>
			<path class="st2" d="M617.8,554.7c0.5,0,0.9,0.2,1.8,0.4c-3.1,8.8-6.1,17.4-9.2,26.2c-8.4,0-16.4,0-24.9,0
				c1.8-7.2,4.8-13.8,6.6-20.8c-1.5-1.6-3.1-3.1-4.5-4.6c0.3-0.5,0.3-0.6,0.4-0.7c0.1-0.1,0.2-0.2,0.3-0.2
				C598.1,554.8,608,554.8,617.8,554.7z"/>
			<path class="st1" d="M545.1,543.3c7.8-1.4,15.5-1.2,23.7-0.9c-6.1,17.4-12,34.2-17.9,51.2c-5.8,0-11.3,0-17.2,0
				c5.5-15.7,10.9-31.2,16.3-46.6C548.2,545.5,546.7,544.4,545.1,543.3z"/>
			<path class="st1" d="M536.6,542.3c1.2,0,2.4,0,4.2,0c-1.3,3.8-2.3,7.1-3.5,10.4c-0.7,1.9-2.3,2-4,2c-4.9,0-9.7,0-14.6,0
				c-1.1,0-2.2,0.1-3.5,0.2c0.4,3,3.3,3.5,4.5,5.7c-3.9,10.8-7.3,22-11.6,33c-5.8,0-11.2,0-17.1,0c4.5-12.9,8.9-25.7,13.4-38.8
				c-7.2,0-14,0-21.3,0c1.1-2.9,2-5.3,3-8.1c-1.9-1.2-3.5-2.2-5.4-3.4c1.4-1.3,2.8-0.9,4-0.9c12.6,0,25.2,0,37.8,0
				C527.1,542.3,531.9,542.3,536.6,542.3z"/>
			<path class="st3" d="M538.2,413.4c0,0.1-0.2,0.1-0.3,0.2c-0.5,0.2-1,0.2-1.3,0.5c-1.6,1.6-2.7,3.6-3.9,5.4
				c-4.6,6.5-10.3,12.1-16.2,17.4c-2.2,2-4.4,3.9-6.7,5.7c4.5-20.1,7-46,2.8-76.9c4,2.4,8.2,4.5,11.3,8.1c6,6.5,11.2,13.2,13.4,23.4
				C537.2,397.9,538.6,408.8,538.2,413.4z"/>
			<path class="st4" d="M538.2,413.4c-0.6,5.9-1.3,11.9-4.1,17.2c-5.7,11.9-13.6,25-24.7,35.7c-3.1,3.7-6.8,6.7-10.2,10
				c-0.5,0.4-0.9,0.9-1.4,1.3c3.8-8.2,8.4-20,11.8-35.1c2.3-1.9,4.5-3.8,6.7-5.7c5.9-5.3,11.6-10.9,16.2-17.4
				c1.3-1.8,2.4-3.8,3.9-5.4C536.9,413.7,537.8,413.6,538.2,413.4z"/>
			<path class="st3" d="M512.4,365.6c4.2,30.9,1.7,56.8-2.8,76.9c-3.6,2.9-7.3,5.6-11.1,8.2c-3.9,2.7-8,5.2-12.1,7.7
				c-4.9,3-9.9,6-15,8.8c-2.2,1.3-4.7,2.1-6.9,3.4c-2.8,1.7-5.9,2.5-8.7,3.8c-5.3,2.6-10.5,5.2-16,7.3c-4,1.5-8,3.1-12,4.6
				c-3.1,1.2-6.3,2.5-9.4,3.8c-0.6-0.1-1.3-0.1-1.8-0.4c-2.4-1.9-4.8-3.7-7.1-5.7c-8.4-7.2-16.8-14.3-24.1-22.6
				c-5.1-5.7-9.9-11.8-13.8-18.3c-3-5.1-5.3-10.6-7.8-16c-0.5-1.1,0.4-2.9-1.6-3.3c-0.1-1.7,0.5-3.9-0.3-5c-1.3-1.8-1-3.6-1.1-5.5
				c-0.1-2.2-0.1-4.4-0.2-6.6c0-0.9,0.1-1.8,0.1-2.6c0-6.4,2.6-11.9,5.1-17.6c2.9-6.6,7.9-11.6,13.3-16.1c3.2-2.7,6.9-4.9,11-6.3
				c6.6-2.2,13.7-3.2,20.8-3.2c3.6,0,9.1,1.1,12.3,2c3,0.9,6,2.4,8.9,4c3.5,2.1,6.6,4.7,9.5,7.4c2.6,2.3,4.3,5.5,6.5,8.3
				c0.3,0.4,0.7,0.6,1.2,1c2.1-2.5,4-5,6.1-7.2c5.3-5.5,11.1-9.9,18.4-12.6c6.3-2.4,12.4-2.7,18.9-2.8c6.1-0.1,11.7,1.5,17.1,4.2
				C510.6,365.6,511.6,365.5,512.4,365.6z M426.8,372.7c-0.8-2.3-0.8-2.3-2.6-3.1c-6-2.6-12.2-3-18.6-2.7
				c-10.5,0.4-19.2,4.8-26.7,11.9c-7.5,7.1-11.4,16-12.8,26c-0.3,2-0.8,4.1-0.6,6.1c0.2,2.9,0.9,5.9,1.5,8.7
				c0.4,1.9,1.1,3.8,1.7,5.7c0.4,1.2,1.2,2.2,2.8,1.9c1.4-0.3,2-1.3,2-2.7c0-0.5,0-1,0-1.5c0.3-3,0.3-6,1-8.9
				c2.1-8.4,5.6-16.2,11.4-22.8c7.7-8.8,17.2-14.5,28.7-16.8C418.6,373.7,422.6,373.3,426.8,372.7z"/>
			<path class="st5" d="M502.6,616.7c-0.4,3.1-1.2,5.9-3.3,8.3c-9.2,0-18.3,0-27.4,0c-1.5,0-3,0.5-4.5,0.8c-0.1,0.3-0.3,0.7-0.4,1
				c1.2,0.2,2.4,0.5,3,0.6c-2,6.1-3.6,11-5.4,16.4c3.9,0,7.4,0,10.8,0c0.9,0,1.8,0,2.6,0c3.5,0,3.5,0,4.6-3.4
				c0.2-0.7,0.5-1.3,0.9-2.3c-1.3-0.2-2.3-0.4-3.7-0.6c-1.7-2-3.6-4.2-6-7c4.7-0.5,8.7-0.2,12.8-0.3c4-0.1,7.9,0,12.3,0
				c-0.3,1.3-0.5,2.9-1.1,4.4c-0.7,1.9-2.2,3.7-2.3,5.7c-0.3,3.9-2.6,6.7-4.9,9.2c-1.3,1.5-3.8,1.9-5.8,2.8c-1.8,0-3.6,0.1-5.4,0.1
				c-7.9,0-15.9,0-23.8,0c-0.8,0-1.6,0-2.5,0c-0.8-0.3-1.6-0.5-2.5-0.8c-0.5-2.5,0-4.6,1.2-6.9c1.7-3.4,2.6-7.2,3.9-10.8
				c1.3-3.9,2.6-7.7,3.9-11.6c0.3-0.8,0.3-1.7,0.5-2.5c-0.8-1-1.6-1.9-2.6-2.9c0.9-0.3,1.6-0.4,2.3-0.6c0.7,0.1,1.5,0.4,2.2,0.4
				c10.9,0,21.7,0,32.6,0c0.7,0,1.5-0.2,2.2-0.4C498.6,616.5,500.4,616.6,502.6,616.7z"/>
			<path class="st4" d="M498.6,450.7c3.8-2.6,7.5-5.3,11.1-8.2c-3.4,15.1-8,27-11.8,35.1c-0.1,0.1-0.3,0.2-0.4,0.4
				c-2.9,2.1-5.9,4.1-8.6,6.4c-3.2,2.7-6.6,5.2-10.1,7.6c-2.8,1.9-5.4,4.1-8.2,6c-2.9,2-6,3.8-9,5.6c-3.9,2.4-7.7,4.8-11.9,7.4
				c-1.8-1-4-2.2-6.2-3.5c-5.4-3.3-10.8-6.6-16-10.1c-3.1-2.1-5.9-4.8-8.8-7.2c3.1-1.3,6.2-2.6,9.4-3.8c4-1.6,8-3.1,12-4.6
				c5.5-2,10.7-4.7,16-7.3c2.8-1.4,5.9-2.2,8.7-3.8c2.2-1.3,4.7-2.1,6.9-3.4c5-2.9,10-5.8,15-8.8
				C490.6,455.9,494.6,453.4,498.6,450.7z"/>
			<path class="st1" d="M476.5,544.1c3.1,2,4.5,5.6,3.4,9.1c-3.4,10-6.7,20.1-10.6,29.9c-2.6,6.6-7.8,10.3-15,10.5
				c-7.2,0.2-14.5,0.1-21.7,0.1c-4,0-8,0.1-12,0c-2-0.1-4-0.4-5.9-1c-4.3-1.5-6.2-5.1-5-9.5c0.7-2.8,1.8-5.4,2.7-8.1
				c2.3-6.8,4.7-13.7,7-20.5c2-5.7,5.6-9.7,11.5-11.3c1.8-0.5,3.6-0.8,5.5-0.9c5.5-0.1,11,0,16.5,0v0c5.6,0,11.2,0,16.9,0
				C472.2,542.3,474.5,542.8,476.5,544.1z M452.9,581.3c3-8.9,6.3-17.4,8.9-26.2c-5.1-0.9-29.2-0.6-32,0.5c1.7,1.7,3.2,3.2,4.7,4.7
				c-1.8,7.1-4.9,13.7-6.5,21C436.4,581.3,444.4,581.3,452.9,581.3z"/>
			<path class="st6" d="M469.6,55.2c2.7,0.1,5.3,2.7,5.2,5.3c-0.1,2.8-2.7,5.1-5.5,5c-2.7-0.1-5-2.4-5-5.1
				C464.3,57.8,466.9,55.2,469.6,55.2z"/>
			<path class="st1" d="M462.7,48c2,4.7-0.1,7.8-5.2,7.4c-2.4-0.2-5-0.7-7.2-1.7c-4.4-2.1-8.7-4.4-12.7-7.2
				c-7.9-5.4-16.6-9-25.6-12.2c-12.2-4.4-24.8-7.6-37.6-9.6c-14.9-2.4-29.8-3-44.8-2.2c-17.9,1-35.4,4.5-52.4,9.9
				c-8.8,2.8-17.4,6.1-26,9.4c-7.2,2.8-14.2,6.1-21.3,9c-1,0.4-2.1,0.5-3.1,0.7c5-5.5,10.8-9.9,16.9-13.7
				c14.7-9.1,30.6-15.1,47.4-18.8c9.6-2.1,19.3-4.2,29-5.5c14.2-1.8,28.5-2.6,43-1.5c12.6,1,25,2.9,37.4,5.4
				c10.8,2.1,21.4,4.6,31.7,8.5c8.8,3.3,17.1,7.7,24.3,13.7C459.3,42,461.4,44.8,462.7,48z"/>
			<path class="st2" d="M461.8,555.1c-2.6,8.8-5.9,17.3-8.9,26.2c-8.5,0-16.4,0-24.9,0c1.6-7.3,4.8-13.9,6.5-21
				c-1.5-1.5-3-3.1-4.7-4.7C432.6,554.5,456.7,554.3,461.8,555.1z"/>
			<path class="st2" d="M440.5,616.6c3.9,0,7.7,0,12.2,0c-4.2,12-8.1,23.3-12.2,35c-3.6,2.5-7.9,0.8-12,1.3
				c-3.3-6.4-6.4-12.6-9.6-19c-0.7,0.1-1.4,0.1-2.1,0.2c-3.1,6.1-3.3,13.3-7.2,18.6c-4.1,0-7.6,0-11.5,0c3.9-11,7.7-21.8,11.5-32.6
				c-1.2-1.1-2.1-2-3.2-3c0.5-0.3,0.8-0.6,1.1-0.6c5.1,0,10.2,0,15.3,0c3.7,7.5,7.3,14.9,10.8,22.2
				C434.8,630.8,438.2,623.9,440.5,616.6z"/>
			<path class="st1" d="M424.2,369.7c1.8,0.8,1.8,0.8,2.6,3.1c-4.2,0.6-8.2,1-12.1,1.7c-11.5,2.3-21,8-28.7,16.8
				c-5.8,6.6-9.3,14.4-11.4,22.8c-0.7,2.9-0.7,5.9-1,8.9c-0.1,0.5,0,1,0,1.5c0,1.4-0.6,2.4-2,2.7c-1.6,0.4-2.4-0.6-2.8-1.9
				c-0.7-1.9-1.3-3.8-1.7-5.7c-0.6-2.9-1.3-5.8-1.5-8.7c-0.2-2,0.3-4.1,0.6-6.1c1.4-10.1,5.3-18.9,12.8-26
				c7.5-7.1,16.2-11.4,26.7-11.9C412,366.7,418.2,367.1,424.2,369.7z"/>
			<path class="st1" d="M394.5,542.6c5.4,0,10.7,0,16.6,0c-6,17.2-11.8,34-17.8,51c-6,0-11.3,0-17.1,0c1.6-6.2,4.3-11.9,5.9-17.9
				c-0.2-0.1-0.5-0.2-0.7-0.4c-0.6,0.5-1.4,0.9-2,1.5c-3.2,3.1-6.5,6.3-9.6,9.5c-1.4,1.4-3,2.1-5,2c-3.6-0.1-7.2,0-10.9,0
				c-1.6-4.8-3.2-9.3-5-14.8c-2.6,7.1-4.9,13.5-7.2,20c-5.8,0-11.2,0-17.1,0c2.2-8,5.3-15.5,7.9-23.3c2.6-7.8,5.5-15.5,8.2-23.4
				c-1.7-1.3-3.2-2.4-4.9-3.7c2.2-1.1,11.8-1.4,21.1-0.7c1.2,3.6,2.4,7.4,3.6,11.2c0.6,1.8,1,3.6,1.6,5.4c1.6,4.6,3.1,9.2,1.9,14.3
				c0.3,0.1,0.6,0.2,0.9,0.3C374.9,563.3,384.7,552.9,394.5,542.6z M382.2,574.7l0.2-0.1l-0.2-0.2L382.2,574.7z"/>
			<path class="st7" d="M400.4,616.7c0,2.9-5.7,20-11.6,35c-0.9,0.3-2.1,1.1-3.4,1.1c-3,0-6.1,0.5-9.3-0.3
				c3.4-11.4,8.7-21.6,11.5-32.7c-1-0.9-2-1.7-3-2.5C386.8,616.2,394.9,616,400.4,616.7z"/>
			<polygon class="st0" points="382.4,574.6 382.2,574.7 382.2,574.4 			"/>
			<path class="st8" d="M367.4,616.3c4.1,0,7.9,0,12.1,0c-0.1,1,0,1.9-0.3,2.8c-1.8,4.9-4.1,9.7-5.4,14.7
				c-1.4,5.3-4.4,10.1-4.8,15.8c-0.1,1.8-2.3,3.2-5.2,3.3c-2.6,0.1-5.2,0-8,0c-2.3-4.6-4.5-9.2-7-13.7c-1-1.8-1.4-4.3-4-5.5
				c-3.8,5.8-4.4,12.8-7.8,19.2c-3.7-0.6-7.8,1.2-11.6-1.1c3.8-11.1,7.3-21.4,10.9-31.7c-1.1-1-2.1-1.9-3.6-3.2
				c1.5-0.3,2.4-0.8,3.4-0.8c4.2-0.1,8.5,0,13.1,0c4.5,6.2,7.2,13.6,11,21.2C362.9,629.7,365.1,623,367.4,616.3z"/>
			<path class="st9" d="M362,418.9c0.8,1.2,0.3,3.3,0.3,5c-9.5,0-19,0-28.7,0c-0.8,2.1-1.7,4.2-2.4,6.3
				c-4.2,12.2-8.4,24.5-12.6,36.7c-1.9,5.6-4,11.3-6,16.9c-1.6,4.5-4.4,6.5-8.5,6.5c-4.2,0-7.3-2.4-8.3-6.6
				c-1.4-5.5-2.6-11.1-3.8-16.7c-1.9-8.5-3.8-17-5.7-25.5c-3.1-13.7-6.2-27.4-9.2-41.1c-0.4-1.9-0.7-3.9-1.6-5.9
				c-1.5,4.4-3,8.8-4.5,13.2c-2.1,6.5-4.1,13-6.3,19.5c-1.4,4.1-4.4,6.1-8.8,6.1c-10.4,0-20.8,0-31.1,0c-4.6,0-7.1-1.8-8.6-6.2
				c-0.9-2.6-1.6-5.2-2.4-7.8c-0.4-1.4-1-2.8-1.8-5c-1.1,3.2-2,5.5-2.8,7.8c-5.5,16.1-11,32.2-16.4,48.3
				c-3.6,10.5-7.1,20.9-10.8,31.4c-1.6,4.6-4.3,6.8-8.8,6.6c-4-0.2-7.1-2.4-8.1-6.4c-0.6-2.6-1.1-5.4-1.6-8
				c-1.5-8.2-2.9-16.4-4.5-24.6c-1.7-9-3.4-18.1-5.1-27.1c-2-10.9-4-21.8-6-32.6c-2-10.9-4-21.8-6-32.6c-0.7-3.9-1.2-7.9-1.9-11.8
				c-0.1-0.6-0.5-1.1-0.9-2.1c-2.2,5.8-4.3,11.1-6.4,16.4c-3.7,9.8-7.4,19.5-11.1,29.3c-1.3,3.4-2.8,6.7-3.8,10.1
				c-1.4,4.6-5.5,6.9-9.8,6.9c-26.6-0.1-53.2-0.1-79.8,0c-3.9,0-7.4-0.9-9.2-4.4c-1.9-3.6-1.1-7.2,1.3-10.5c2.6-1.7,5.3-2.3,8.5-2.3
				c23.7,0.1,47.4,0.1,71.1,0c1.2,0,2.7,0.7,3.7-0.7c2.2-5.4,4.4-10.8,6.5-16.2c7.5-19.6,14.9-39.3,22.4-58.9
				c0.7-1.9,1.2-3.8,2.1-5.6c1.8-3.9,5.3-5.6,9.6-4.9c3.4,0.5,6.2,3.7,6.8,7.5c1.2,6.7,2.4,13.5,3.7,20.2c1.8,9.8,3.5,19.6,5.3,29.4
				c1.7,9.4,3.5,18.8,5.2,28.2c2,10.8,4,21.5,5.9,32.3c1.6,8.4,3.1,16.9,4.8,25.9c0.8-1.5,1.4-2.5,1.8-3.6
				c3.9-11.3,7.7-22.6,11.6-33.8c4.6-13.5,9.2-27.1,13.8-40.6c0.5-1.4,1.1-2.8,1.6-4.2c1.5-3.6,4.4-5.7,7.9-5.6
				c3.6,0.1,6.7,2.2,7.9,5.8c1.9,5.8,3.6,11.6,5.4,17.4c1.6,5.1,3.2,10.2,4.8,15.3c6.6,0,12.9,0,19.6,0c1.1-3.3,2.2-6.6,3.3-9.9
				c2.7-8.1,5.5-16.2,8.2-24.4c2.5-7.4,4.8-14.9,7.3-22.3c0.3-0.9,0.6-1.9,1.2-2.7c2.2-2.8,4.8-4.5,8.7-3.7c3.9,0.9,6.1,3.2,6.9,6.9
				c2.5,11.3,5,22.6,7.5,33.8c3,13.7,6,27.4,9.1,41.1c1.1,4.8,2.2,9.5,3.6,15.1c1.4-3.7,2.7-6.7,3.7-9.6c3.2-9.3,6.3-18.6,9.6-27.8
				c1.5-4.3,4.1-6,8.8-6c10.9-0.1,21.8,0,32.6,0c0,2.2,0,4.4,0.2,6.6C361,415.2,360.7,417,362,418.9z"/>
			<path class="st10" d="M327.8,616.4c-0.2,2.3-0.4,4.3-1.5,6.6c-2.2,4.6-3.6,9.6-5.2,14.4c-0.6,1.8-1.1,3.6-1.7,5.4
				c-1.2,3.3-2.5,6.5-3.8,10c-4,0-7.9,0.4-12.2-0.3c3.9-11.1,7.5-21.5,11.4-32.5c-1.1-0.7-2.4-1.5-3.8-2.5
				C313.5,615.9,319.5,615.6,327.8,616.4z"/>
			<path class="st1" d="M329.7,257.2c-3.1,0.6-5.6,1-8,1.5c-10,2-19.4,5.6-28.6,9.7c-13.7,6.1-26.7,13.6-38.8,22.5
				c-12.3,9.1-22,20.6-30.6,33.1c-7.6,11.2-13.5,23.3-17.8,36.1c-0.8,2.4-1.3,4.8-2.1,7.2c-0.4,1.2-1.2,2.5-2.3,3.2
				c-4.2,2.9-6.4,7.1-8,11.8c-2.7,7.9-5.4,15.8-8.1,23.7c-0.3,0.8-0.7,1.6-1.3,3c-0.5-7.5-0.2-14.2,0.7-20.9
				c1.5-11,4.1-21.8,8.1-32.2c4.9-12.9,11.7-24.8,19.7-36c7.1-9.9,15.4-18.7,23.8-27.4c4.6-4.8,8.4-10.2,10.7-16.5
				c3.4-9.3,2.3-18.4-1.3-27.4c-1.4-3.4-3.2-6.5-5.2-10.4c2.4,1.1,3.4,2.6,4.5,4c4.6,5.8,9.6,11.1,15.6,15.5
				c6.5,4.7,13.6,6.3,21.6,5.3c8-1,15.6-3.4,23.3-5.3C313.4,256,321.1,255.2,329.7,257.2z"/>
			<path class="st7" d="M303,616.4c1.3,0.2,2.6,0.3,3.9,0.5c-4,12-8,23.9-12,36c-4.3,0-8.3,0.2-12.6-0.1c0.9-3.1,1.6-5.4,2.4-8
				c-5.8,0-11.1,0-16.4,0c-0.8,2.5-1.7,5.1-2.5,7.6c-3.4,1-9.9,0.9-12.6-0.3c1.8-5.1,3.5-10.2,5.3-15.4c1.6-4.4,3.2-8.8,4.7-13.2
				c0.2-0.6,0.1-1.2,0.2-1.8c0.4-0.2,0.8-0.4,1.2-0.6c-0.4-0.4-0.8-0.7-1.1-1.1c-0.6-1-1.1-1.9-1.6-2.9c11,0,21.9,0,32.9-0.1
				c1.3,0,2.7-0.2,4-0.4C300.1,616.4,301.6,616.4,303,616.4z M288.5,636.2c1.2-3.6,2.4-7,3.7-10.9c-6.9,0-13.2,0-19.5,0
				c-0.1,0-0.3,0.3-0.4,0.6c0.6,0.7,1.1,1.5,1.8,2.3c-0.9,2.5-1.7,5-2.7,7.9C277.3,636.2,282.8,636.2,288.5,636.2z"/>
			<path class="st1" d="M263.7,581.4c10.5,0,21.1,0,32,0c-1.6,4.3-2.9,8.1-4.2,11.7c-3.3,0.8-42.7,0.9-47.1,0.2
				c5.4-15.4,10.7-30.8,16.1-46.4c-1.6-1.2-3.1-2.4-5.2-4c3-1.1,5.6-0.5,8.1-0.6c2.6-0.1,5.3,0,7.9,0c2.6,0,5.2,0,8,0
				c-1,3-1.7,5.5-2.6,7.9c-2.6,7.4-5.3,14.8-7.8,22.2c-0.9,2.5-1.8,4.9-4.1,6.4c-0.6,0.4-0.9,1.1-1.4,1.6
				C263.5,580.8,263.6,581.1,263.7,581.4z"/>
			<path class="st11" d="M264.6,620.8c-0.4,0.2-0.8,0.4-1.2,0.6c0-0.6,0-1.2,0-1.8C263.8,620,264.2,620.4,264.6,620.8z"/>
			<path class="st7" d="M255.9,620.6c-1.4,4.8-2.2,9.8-5,14.3c-1.5,2.5-3.6,4-6.2,5c-1.3,0.5-2.6,1.1-3.8,1.6
				c0.1,4.1,4.8,6.4,3.4,10.6c-2.5,0.9-7.4,1.1-12,0.5c-1.9-3.7-3.7-7.2-5.6-10.9c-2,0-3.9,0-6.2,0c-1.2,3.2-2.4,6.5-3.8,10.3
				c-3.8,1.4-8.1,1.3-12.8,0.1c3.8-10.8,7.5-21.2,11.3-32c-0.5-0.4-1.3-1.1-2.2-1.8c-0.4-1.4,0.7-1.6,1.6-2c0.7,0,1.4,0,2,0
				c10.1,0,20.1,0,30.2,0C250.4,616.6,253.6,617.3,255.9,620.6z M242.6,625.3c-7,0-13.7,0-21.1,0c1.4,1.6,2.3,2.5,3.1,3.4
				c-0.2,1.1-0.4,2.2-0.7,3.3c5.6,0,11,0,16.6,0C241.2,629.8,241.9,627.7,242.6,625.3z"/>
			<path class="st1" d="M250.3,528.3c-1.2,0.1-1.7,0.1-2.2,0.1c-1.5,0-3,0-5,0c-4.3-4.3-8.9-8.6-13.2-13.3
				c-10.4-11.4-19.2-23.9-26.5-37.5c-0.6-1-1-2.5-0.7-3.5c1.4-4.7,3.1-9.3,5-14c4.9,12.7,10.5,24.8,17.6,36.2
				C232.3,507.8,240.5,518.2,250.3,528.3z"/>
			<path class="st1" d="M247.6,542.8c-1.6,4.7-3.2,9.4-4.8,14c-3.7,11.1-7.4,22.2-11.1,33.3c-1.1,3.2-1.5,3.6-4.7,3.6
				c-4.5,0-9,0-14.1,0c1.5-4.3,2.9-8,4.3-12c-8.3,0-16.4,0-24.8,0c-2.1,3.5-2.1,8.1-4.9,11.8c-5.5,0-10.9,0-16.8,0
				c5.4-15.7,10.8-31,16.2-46.5c-1.7-1.3-3.3-2.5-5.1-4C185,542.2,242.9,542,247.6,542.8z M220.9,570.8c1.8-5.2,3.5-10.3,5.4-16
				c-10.1-0.3-19.5-0.2-29.9,0c1.5,1.8,2.5,3,3.5,4.3c-1.2,3.8-2.5,7.5-3.8,11.7C204.7,570.8,212.7,570.8,220.9,570.8z"/>
			<path class="st8" d="M226.3,554.9c-1.9,5.7-3.7,10.8-5.4,16c-8.2,0-16.2,0-24.8,0c1.4-4.2,2.6-7.9,3.8-11.7
				c-1.1-1.3-2-2.5-3.5-4.3C206.8,554.6,216.2,554.5,226.3,554.9z"/>
			<path class="st8" d="M210.3,617.6c-0.6,1.3-1.2,2.7-1.7,4c-1.2,3.5-2.1,4.1-6,4.2c-2.8,0-5.5,0-8.3,0c-0.1,0-0.2,0.1-0.7,0.2
				c2.2,2.1,1.6,4.4,0.7,6.9c-1,2.7-1.3,5.7-2.4,8.3c-1,2.3-1.9,4.6-2.5,7c-0.3,1.3-1.2,2.6-1.9,4c-3.2,0.9-9.8,0.8-12.2-0.4
				c2.9-8.5,5.8-17.1,8.8-25.8c-4.9-1.1-9.9,0.7-14.4-1.1c0.7-1.9,1.2-3.5,1.6-4.7c-1-1.5-1.8-2.5-2.5-3.6c13,0,25.9-0.1,38.9,0
				C208.5,616.8,209.4,617.3,210.3,617.6z"/>
			<path class="st6" d="M205.9,80c0.4-0.5,1.1-0.6,1.7-0.9c-16.2,27.5-18.6,55.9-8.5,85.8c-0.3,0.1-0.8,0.3-1.3,0.6
				c-0.2-0.3-0.4-0.6-0.6-0.9c-4.5-9.2-7.8-18.9-9.1-29.1c-2.3-18.4,1.7-35.2,13.3-49.9C202.8,83.6,204.3,81.7,205.9,80z"/>
			<path class="st1" d="M175.4,542.3c0.8,0,1.7,0.2,3,0.3c-1.4,3.8-2.5,7.3-3.9,10.7c-0.6,1.5-2.2,1.4-3.6,1.4c-4.9,0-9.7,0-14.6,0
				c-1.1,0-2.2,0.1-3.3,0.2c-0.3,1.7,0.9,2.2,1.6,3c0.8,0.8,1.6,1.5,2.8,2.6c-3.8,11-7.6,22-11.5,33.2c-5.8,0.3-11.3,0.1-17.4,0.2
				c4.6-13.3,9-26,13.5-39c-7.2,0-14,0-21.4,0c1-2.8,1.9-5.2,2.9-7.9c-1.7-1.1-3.4-2.3-5.3-3.5c1.3-1.4,2.7-0.9,3.9-0.9
				c14.6,0,29.2,0,43.8,0C169.2,542.3,172.3,542.3,175.4,542.3z"/>
			<path class="st0" d="M159.4,321.3C159.4,321.2,159.4,321.2,159.4,321.3C159.4,321.3,159.4,321.3,159.4,321.3z"/>
			<path class="st1" d="M93.2,542.2c7.2,0,14.4,0,22.3,0c-6.1,17.5-12,34.3-17.9,51.3c-5.9,0.6-11.4,0.2-17.3,0.3
				c5.6-16,11-31.4,16.4-46.9c-1.9-1.4-3.5-2.5-5.4-3.8C92.1,542.6,92.7,542.2,93.2,542.2z"/>
			<path class="st1" d="M84.4,542.2c1.3,0,2.7,0.2,4.5,0.3c-5.1,5.9-9.9,11.4-14.6,16.8c-9.3,10.8-18.7,21.5-27.9,32.3
				c-1.1,1.3-2.3,2.2-4.1,2.2c-4.9-0.1-9.7,0-15.1,0c-2.8-15.7-5.5-31.4-8.2-46.9c-1.9-1.3-3.5-2.4-5.2-3.5
				c2.2-1.4,11.1-1.7,22.3-0.9c1.1,5.7,1.8,11.7,3.3,17.4c1.6,5.8,0.2,11.5,0.4,18.1c1.3-1.2,2.1-1.8,2.7-2.5
				c8.5-10,16.9-20,25.3-30.1c1.6-2,3.3-3.1,6-2.9C77.4,542.4,81,542.2,84.4,542.2z"/>
		</g>
	</g>
</g>
</svg>
