<svg xmlns="http://www.w3.org/2000/svg" viewBox="0 0 158.33 123.87"><defs><style>.cls-1{fill:#0c131c;}.cls-2{fill:#e62f76;}.cls-3{fill:#ded921;}</style></defs><title>Recurso 1</title><g id="Capa_2" data-name="Capa 2"><g id="Capa_2-2" data-name="Capa 2"><path class="cls-1" d="M157.41,30.42a31.11,31.11,0,0,0-1.24-7.89,33.29,33.29,0,0,0-5.48-10.24A33.78,33.78,0,0,0,145,6.86a35.78,35.78,0,0,0-9.75-5A45.59,45.59,0,0,0,127.94.4C123.35.26,118.76,0,114.17,0,104.78,0,95.41.38,86,.38A45,45,0,0,0,70.87,3a34.48,34.48,0,0,0-9.51,5.91A29.88,29.88,0,0,0,53.79,19.7a27.16,27.16,0,0,0-2.26,11.44,38.69,38.69,0,0,0,.58,5.56,22.21,22.21,0,0,0,2.28,6.79c1.72,3.3,3.79,6.42,5.74,9.61,1.49,2.45,3,4.87,4.52,7.31A1.74,1.74,0,0,1,65,62a44.33,44.33,0,0,0-3.54,6.22,1.39,1.39,0,0,1-.69.53L21.1,70l37.66,1.25a3.68,3.68,0,0,1,1.13.41l-2.1,7.07c-4.88.13-52,1.51-52,1.51S56.19,82,57.43,82.16c0,.87,0,1.71,0,2.54,0,.54,0,1.09,0,1.64s0,.82,0,1.23c0,.87-.18,1-1.15,1.09C54.4,88.78,0,90.45,0,90.45S52.11,92,55.14,92.05a4.92,4.92,0,0,1,2.59.51,22.28,22.28,0,0,1,.55,3.23,4.91,4.91,0,0,0,.57,1.56c0,.17.09.35.14.53a1.33,1.33,0,0,1-.23.9c-.71.11-1.42.19-2.12.25L5.3,100.48s52.71,1.76,54.85,1.76A39.43,39.43,0,0,1,62,105.85c.43,1.16,1.59,2,1.57,3.37L17.32,110.8l48.12,1.73a2.34,2.34,0,0,1,1.13.57c.71.7,1.29,1.54,2,2.26a42,42,0,0,0,8.85,7.58l.26.15c.41.26.82.53,1.24.78h51.26l.29-.18.19-.1.28-.2a47.76,47.76,0,0,0,5.05-3.74c.61-.51,1.21-1,1.79-1.6l.11-.11a43.72,43.72,0,0,0,3.18-3.35,37,37,0,0,0,3.28-4.28,38.23,38.23,0,0,0,4.35-8.18c.18-.54.37-1.07.55-1.61.32-.91.61-1.84.87-2.77.08-.26.14-.52.21-.78l.18-.73s0-.09,0-.14a35.23,35.23,0,0,0,.91-5.53,42.19,42.19,0,0,0,.21-4.23,42.86,42.86,0,0,0-7.74-24.55c-.06-.11-.11-.2-.18-.31L145.91,58c1.28-2.05,2.57-4.1,3.84-6.16,1.08-1.75,2.22-3.47,3.21-5.26a30.91,30.91,0,0,0,3.93-10.18A25.49,25.49,0,0,0,157.41,30.42Zm-91.16.29a20.51,20.51,0,0,1,1.59-6.28,15.84,15.84,0,0,1,4.59-5.88,17,17,0,0,1,5.71-3.11,27.62,27.62,0,0,1,7.94-1.08q6,0,11.94-.11c3.2-.05,6.41-.23,9.62-.2,5.86,0,11.72.1,17.57.38,6.29.29,11.5,2.87,15,8.27.94,1.47,2.21,6.84,2.28,7.76a15.35,15.35,0,0,1-2.45,9c-2.18,3.71-4.52,7.32-6.79,11a.83.83,0,0,1-.28.18,49.14,49.14,0,0,0-57,.13c-1.37-2.19-2.7-4.25-4-6.34s-2.42-4.21-3.72-6.26a10.61,10.61,0,0,1-1.36-3.82A11.82,11.82,0,0,1,66.25,30.71Z"/><path class="cls-2" d="M129.18,84a7.48,7.48,0,0,1-1.43-3.38c-.53-3.07,0-6.42,3-8.62a7.92,7.92,0,0,1,11,1.86c.37.49.72,1,1.18,1.66a10.08,10.08,0,0,1,5.55-4.75,8.48,8.48,0,0,1,2.41-.26,7.21,7.21,0,0,1,6.24,3.88,7.71,7.71,0,0,1,1.17,3.43c.21,4-2,6.79-4.78,9.19-.81.7-3.47,3.06-4.12,3.5-1.85,1.26-3.68,2.53-5.5,3.83a1.46,1.46,0,0,1-1.87,0c-1.24-.83-2.56-1.55-3.72-2.46-2.46-1.92-4.84-3.94-7.26-5.91A13.46,13.46,0,0,1,129.18,84Z"/><path class="cls-3" d="M129.18,84a30,30,0,0,0,2.23,2.24c-4.43,0-8.75.09-13,.14-1.3,0-1.54.33-1.84,1.6-.37,1.61-1.42,5.52-1.52,5.88A1.55,1.55,0,0,1,113.77,95a1.39,1.39,0,0,1-1.25-1.2c0-1.45-2.24-13.08-2.6-14.42-.67.44-.5,1-.51,1.43-.07,2.68-3.65,30.39-3.78,31.44-.23,1.87-.66,5.74-.81,7.35a1.25,1.25,0,0,1-.77,1.06,2.28,2.28,0,0,1-1.41.1,1.54,1.54,0,0,1-1.14-1.26c-1.18-7.71-8.78-61.83-8.78-62.82-.88,1.08-5.22,44.59-5.31,45.59s-.22,2.23-1.21,2.87c-1.64-.18-1.45-1.63-1.71-2.59s-.46-1.91-.76-2.85-.55-2-.79-3c-.54-2.34-4.12-17-4.38-18.36-.59,2-1.6,6.73-1.81,7.3A1.65,1.65,0,0,1,75,86.67c-3.34,0-6.69,0-10,0-2.27,0-4.54,0-6.91,0-.09-.63-.34-1.15.27-1.74a1.75,1.75,0,0,1,1.22-.49c3.19,0,6.37,0,9.55,0h5.3a4.83,4.83,0,0,0,.54-1c.56-2.53,1-5.07,1.62-7.59.22-1,.44-1.71.77-2.86a1.15,1.15,0,0,1,2-.28,4.43,4.43,0,0,1,.61,1.93c.26,1.39,5.35,21.5,5.35,21.5l.42,1.52.25,0V96.18c.16-2.44,2.66-24.15,2.67-24.28.15-2.18,2.3-21.63,2.62-23.53.23-1.3.16-1.31,1.71-1.39.9,0,1.47,7,1.72,8.82S99.24,88.05,99.54,90c.24,1.53,2.11,14.21,2.4,16,0,.24.51,4.71.67,6.51a.39.39,0,0,0,.78,0c.13-.92,3.59-31.31,3.83-33.29s1-8.36,1.11-8.86a1.69,1.69,0,0,1,1.27-1.45c.52,0,1.2.67,1.31,1.39.39,2.51,2.66,15.4,2.65,15.9a5,5,0,0,0,.17.82.31.31,0,0,0,.58.09,10,10,0,0,0,.68-1.67,1.67,1.67,0,0,1,1.71-1.3c1.07,0,2.15,0,3.22,0Z"/></g></g></svg>