<svg xmlns="http://www.w3.org/2000/svg" viewBox="0 0 205.83 31.61"><defs><style>.cls-1{fill:#0c131c;}.cls-2{fill:#0b1119;}.cls-3{fill:#0b1018;}.cls-4{fill:#0f131a;}.cls-5{fill:#0e151f;}.cls-6{fill:#1d1d1b;}</style></defs><title>Recurso 3</title><g id="Capa_2" data-name="Capa 2"><g id="Capa_2-2" data-name="Capa 2"><path class="cls-1" d="M107.15,9s-2.72,3.11-4,4.76a2.16,2.16,0,0,1-2.65.9c-.13-1.22-.38-3.66-.38-3.66l0-4.14L98.24,11s-.93,2.52-1.38,3.82H91.28c.64-1.73,1.22-3.31,1.82-4.89s1.21-3.21,1.83-4.81S96.2,1.86,96.87.14h5.92l.35,4.53.46,4.77L111.23.11h5.61c.07.06.13.09.16.15a.21.21,0,0,1,0,.17q-2.66,7.19-5.32,14.34h-5.57l1.92-5.23,1.26-3Z"/><path class="cls-2" d="M190,6.45c-.75,1.91-1.36,3.46-1.95,5a23.7,23.7,0,0,0-.83,2.46,1.06,1.06,0,0,1-1,.9c-1.62,0-3.24,0-5.08,0,1.63-3.14,2.37-6.35,3.79-9.29.67-1.38,1.08-2.89,1.62-4.34.41-1.1.42-1.11,1.59-1.12s2.52,0,3.87,0c1.63,2.8,3.28,5.61,5,8.6,1.11-1.41,1.25-3,1.94-4.35A32.16,32.16,0,0,0,200.42.13h5.41a9.87,9.87,0,0,1-.31,1.41c-.91,2.37-1.86,4.73-2.78,7.09-.53,1.38-1,2.77-1.55,4.14a2,2,0,0,1-.75,1A8,8,0,0,1,196,14.86a1.45,1.45,0,0,1-1.12-.85c-1.24-2-2.5-4-3.75-6C190.82,7.61,190.52,7.22,190,6.45Z"/><path class="cls-3" d="M63.83,14.77H58.7l.61-2.72H56.49c-2.22,0-2.22,0-3.93-1.1l-2.13,3.81H45.08c.2-.5.31-.89.49-1.24C47.26,10.28,49,7.05,50.63,3.8a4.38,4.38,0,0,1,2.1-2c1-.45,1.88-.93,2.84-1.34A3.85,3.85,0,0,1,57,.07c2.21,0,4.42,0,6.63,0a2.87,2.87,0,0,1,2.19.87c.64.61,1.24,1.26,1.91,1.84A1.39,1.39,0,0,1,68,4.45q-1.82,4.83-3.68,9.66A3,3,0,0,1,63.83,14.77ZM53.65,9c2.26,0,4.2,0,6.14,0a1.36,1.36,0,0,0,1.37-.8,26.45,26.45,0,0,0,1.28-3.45c.24-.84-.17-1.29-1.07-1.32a36.64,36.64,0,0,0-3.78,0,2.14,2.14,0,0,0-1.43.67A17.25,17.25,0,0,0,53.65,9Z"/><path class="cls-3" d="M175.76.05c1.26,0,2.53.1,3.78,0,1.73-.16,2.72,1,3.85,1.93a1.62,1.62,0,0,1,.37,1.91c-.88,2.31-1.69,4.64-2.7,6.89a6.63,6.63,0,0,1-5.94,3.93,88.5,88.5,0,0,1-9.07.09,4.63,4.63,0,0,1-3.24-2,2.68,2.68,0,0,1-.09-2.16c.81-2.27,1.73-4.5,2.73-6.69,1.14-2.52,3.37-3.53,6-3.79a42,42,0,0,1,4.35,0ZM178,4.38a1.54,1.54,0,0,0-1.65-.9c-1.32,0-2.64.06-4,0a1.78,1.78,0,0,0-1.9,1.18c-.74,1.7-1.49,3.39-2.15,5.12-.37,1,.11,1.57,1.17,1.6,1.25,0,2.51,0,3.77,0,1.8,0,2.22-.3,2.86-2Z"/><path class="cls-3" d="M122.7,14.84c-1.26,0-2.52,0-3.78,0-1.69.06-2.82-1-3.83-2.07a2.44,2.44,0,0,1-.15-2.13c1.06-2.57,1.79-5.27,3.2-7.69a3.87,3.87,0,0,1,1.55-1.53A9.76,9.76,0,0,1,124.83,0c2.39.09,4.79,0,7.18,0,1.87,0,2.88,1.3,4,2.49a1,1,0,0,1,.08.89C135,6.2,134,9,132.74,11.68a5.73,5.73,0,0,1-3.88,2.74A25,25,0,0,1,122.7,14.84ZM130.35,4.1a5.26,5.26,0,0,0-1.49-.58c-1.45-.07-2.9,0-4.34,0a1.63,1.63,0,0,0-1.67,1c-.82,1.78-1.57,3.6-2.25,5.44-.33.9.12,1.46,1.1,1.49,1.57,0,3.14,0,4.71,0a2.08,2.08,0,0,0,1.25-.64,4.54,4.54,0,0,0,.75-1.45C129,7.66,129.63,6,130.35,4.1Z"/><path class="cls-1" d="M1.65.07c1.93,0,3.75,0,5.57,0,.16,0,.31.2.49.33-.3,1.84-.61,3.69-.89,5.53a19.93,19.93,0,0,1-.57,3.67c-.29.78,0,1.15.32,1.67a2.37,2.37,0,0,0,.36.09c2.77,0,2.82.05,4.23-2.26s2.75-4.7,4.15-7c.41-.69.9-1.33,1.34-2h5.81c-.61,1-1.11,1.93-1.65,2.8-1.6,2.59-3.24,5.15-4.81,7.77a7.67,7.67,0,0,1-2.91,2.54,9.26,9.26,0,0,1-5.63,1.63,15,15,0,0,0-2.84,0c-1.79.17-2.93-.88-4-2a3,3,0,0,1-.51-2.68c.27-1.63.72-3.23,1-4.87S1.45,2,1.65.07Z"/><path class="cls-4" d="M143.71,3.81c-2.18-.29-4.19.17-6.32-.36L138.7.12h18.17a6,6,0,0,1-1.22,3.57h-6.23c-.35.89-.71,1.79-1.07,2.69-.74,1.89-1.58,3.74-2.21,5.67s-2.15,2.43-3.81,2.75a16.17,16.17,0,0,1-2.81,0C141,11.08,142.3,7.5,143.71,3.81Z"/><path class="cls-4" d="M49.7.11c-.41,1.11-.7,2-1.1,2.91a1.33,1.33,0,0,1-1.41.71c-1.76,0-3.53,0-5.34,0-1.1,2.9-2.2,5.75-3.26,8.62A3.28,3.28,0,0,1,37,14a7.21,7.21,0,0,1-4.91.69L36.19,3.9c-2.15-.54-4.26.26-6.28-.54L31.25.11Z"/><path class="cls-2" d="M77.05.06c-.32.91-.55,1.59-.8,2.26-.82,2.2-1.57,4.42-2.51,6.57a5.14,5.14,0,0,0-.24,2.48h8.68A7.29,7.29,0,0,1,81,14.83c-3.38,0-6.79.09-10.18-.05-1.58-.06-2.65-1.3-3.55-2.51-.19-.25,0-.84.11-1.22.84-2.26,1.71-4.5,2.58-6.75.43-1.14.84-2.3,1.34-3.41A1.4,1.4,0,0,1,72.16.1C73.72,0,75.28.06,77.05.06Z"/><path class="cls-1" d="M153.19,14.83c.24-.51.43-.83.56-1.18l3.62-9.86c.11-.28.27-.55.38-.83.8-2.07,2.45-2.82,4.52-2.9.56,0,1.12,0,1.87,0A6.36,6.36,0,0,1,164,1.35c-.86,2.3-1.77,4.59-2.66,6.89A23.24,23.24,0,0,0,160,11.7c-.48,2.2-2.19,2.73-4,3.1A14.21,14.21,0,0,1,153.19,14.83Z"/><path class="cls-5" d="M29.32.05C28.61,2,28,3.64,27.39,5.3c-.81,2.13-1.68,4.24-2.43,6.39a4.71,4.71,0,0,1-3.87,3.1,15.09,15.09,0,0,1-2.95,0c.66-1.78,1.25-3.38,1.86-5,.88-2.3,1.91-4.57,2.65-6.92.6-1.92,2-2.52,3.7-2.85A17.8,17.8,0,0,1,29.32.05Z"/><path class="cls-6" d="M51.45,24.45v7.06h-2V24.45H47V22.76h6.91v1.69Z"/><path class="cls-6" d="M68.14,25.67a2.56,2.56,0,0,1-1.66,2.71l2.21,3.13h-2.4l-1.94-2.79H63v2.79H61V22.76h3.32a4.75,4.75,0,0,1,2.91.69A2.66,2.66,0,0,1,68.14,25.67Zm-2.35,1a1.34,1.34,0,0,0,.36-1,1.11,1.11,0,0,0-.37-1,2.47,2.47,0,0,0-1.32-.26H63V27h1.42A2.16,2.16,0,0,0,65.79,26.71Z"/><path class="cls-6" d="M82.06,31.51l-.81-1.89H77.58l-.81,1.89H74.69l3.78-8.75h1.89l3.78,8.75Zm-2.64-6.14-1.1,2.54h2.19Z"/><path class="cls-6" d="M90.84,22.76h2v8.75h-2Z"/><path class="cls-6" d="M106.75,22.76h2v8.75h-2L102.58,26v5.48h-2V22.76h1.83l4.29,5.64Z"/><path class="cls-6" d="M116.54,22.76h2v8.75h-2Z"/><path class="cls-6" d="M132.46,22.76h1.95v8.75h-1.95L128.29,26v5.48h-2V22.76h1.83l4.3,5.64Z"/><path class="cls-6" d="M147.93,27.06h2v3.1a4.59,4.59,0,0,1-3.61,1.45,4.47,4.47,0,0,1-3.24-1.27,4.65,4.65,0,0,1,0-6.48,4.47,4.47,0,0,1,3.22-1.3,4.8,4.8,0,0,1,3.27,1.24l-1,1.47a3.85,3.85,0,0,0-1.09-.71,2.87,2.87,0,0,0-1.07-.19,2.55,2.55,0,0,0-1.87.75,3,3,0,0,0,0,4,2.36,2.36,0,0,0,1.75.75,3.33,3.33,0,0,0,1.69-.39Z"/></g></g></svg>