<svg xmlns="http://www.w3.org/2000/svg" viewBox="0 0 330.77 15.43"><defs><style>.cls-1{fill:#5aff31;}</style></defs><title>raw-line</title><g id="Capa_2" data-name="Capa 2"><g id="Capa_2-2" data-name="Capa 2"><path class="cls-1" d="M330.38,2.85c.49.07.31-.77.39-.92C330,2.12,330.4,3.07,330.38,2.85Z"/><polygon class="cls-1" points="322.32 4.75 322.46 4.41 321.27 5.25 322.32 4.75"/><path class="cls-1" d="M314.78,4.73c.71,1.43,2.73-.23,4.07.28l.23.33.6-1.15C318.05,4.37,315.93,5.13,314.78,4.73Z"/><path class="cls-1" d="M310.76,1.65c.25.55-.87.48.94.17a1.58,1.58,0,0,1-.17-.14A4.57,4.57,0,0,1,310.76,1.65Z"/><path class="cls-1" d="M311.53,1.68c.79,0-.52-.47,0,0Z"/><path class="cls-1" d="M307.86,2l1.05-.5c-.22-.33-1.15-.4-.81-.64C307,1.13,307.25,1.46,307.86,2Z"/><path class="cls-1" d="M306.87,3l.54-.21C307.32,2.69,307.17,2.64,306.87,3Z"/><path class="cls-1" d="M308.56,2.39l-1.15.44c.15.23.17.69.53-.16C307.85,3.09,308.07,2.69,308.56,2.39Z"/><path class="cls-1" d="M309.21,2.6c.59.32,1.35.51.3,1C311.51,3.41,311.21,2.4,309.21,2.6Z"/><path class="cls-1" d="M314.4,6.21l.78.42.68-.48C315.52,6.39,314.35,5.76,314.4,6.21Z"/><path class="cls-1" d="M301.35,1.26c-.07.3.35.81.43,1.2l.77-.35C302.15,1.9,301.4,1.71,301.35,1.26Z"/><path class="cls-1" d="M301.78,2.46,300.62,3C301.65,3,301.84,2.79,301.78,2.46Z"/><polygon class="cls-1" points="306.68 4.63 308.58 3.53 306.32 4.64 306.68 4.63"/><polygon class="cls-1" points="296.93 1.22 297.59 0.52 296.42 1.58 296.93 1.22"/><path class="cls-1" d="M294,1.34c.48-.58-.67-1-.16-1.34a4.67,4.67,0,0,0-2.08,1.05A2.59,2.59,0,0,1,294,1.34Z"/><path class="cls-1" d="M290.74,1.71a5.67,5.67,0,0,0,1-.66A3,3,0,0,0,290.74,1.71Z"/><path class="cls-1" d="M298.65,2.83a1.39,1.39,0,0,0-.91-.87l.46.86Z"/><path class="cls-1" d="M298.21,2.84v0l-1,0Z"/><path class="cls-1" d="M298.77,2.83h-.12C298.7,2.91,298.72,2.94,298.77,2.83Z"/><path class="cls-1" d="M303.65,3.85c-.67.48-2.09,1-.72,1.72C303.42,5,302.63,4.57,303.65,3.85Z"/><path class="cls-1" d="M299.33,3.9l1.23.2c0-.23-.25-.56.09-.8Z"/><polygon class="cls-1" points="298.73 4.17 299.33 3.9 298.88 3.83 298.73 4.17"/><path class="cls-1" d="M292.84,2.51a3.4,3.4,0,0,1-1.76.46,9.11,9.11,0,0,0,2.12.26C293.29,3,293.6,2.48,292.84,2.51Z"/><path class="cls-1" d="M295.45,2.75l-.11,0C295.41,2.87,295.47,2.89,295.45,2.75Z"/><path class="cls-1" d="M284.63,3l.1.15,0-.15Z"/><path class="cls-1" d="M293.31,3.39a1.1,1.1,0,0,0,1.15-.31,6.3,6.3,0,0,1-1.26.15C293.15,3.35,293.14,3.43,293.31,3.39Z"/><path class="cls-1" d="M288.94,2.11a6.1,6.1,0,0,0,.92.47C289.59,2.31,289,1.89,288.94,2.11Z"/><path class="cls-1" d="M295.16,2.56l.08,0C295.06,2.34,295.09,2.43,295.16,2.56Z"/><path class="cls-1" d="M295.16,2.56a2.77,2.77,0,0,0-.7.52,4.32,4.32,0,0,0,.88-.28A1.37,1.37,0,0,1,295.16,2.56Z"/><path class="cls-1" d="M282.67,8.45a1.69,1.69,0,0,1,2.68-.67c1.18-.6.41-3.2-.62-4.66,0,.35,0,.67-1.25,1.13.43.44,2.69,1,1.67,1.73-1.61.41-1.32-.28-2.1-.7.67,1-2,1.44-1.69,2.89l1.41-.51C282.79,7.89,282.28,8.25,282.67,8.45Z"/><path class="cls-1" d="M287,3.2l.5-.1A4.23,4.23,0,0,1,285.82,2c-.83.39-1,.68-1.06.94l2.45.11Z"/><path class="cls-1" d="M289.78,3.1c-.39.86-1.58,1.23-.85,2.16,1.46-.06,1-.72,1.9-1.09-2.36.21.68-.48-1-1A5.88,5.88,0,0,1,291.08,3a7.57,7.57,0,0,1-1.22-.39l.05,0h0c.1.11.13.18,0,.11l-.05,0a1.17,1.17,0,0,1-.11.33c-.68-.18-.1-.23.11-.33a.5.5,0,0,0,0-.13h0l-2.37.47A7.33,7.33,0,0,0,289.78,3.1Z"/><path class="cls-1" d="M301.67,7.42a.25.25,0,0,1-.08-.2C301.44,7.33,301.38,7.4,301.67,7.42Z"/><path class="cls-1" d="M300.69,6.9c.18-.12.32-.46.88-.37.48.26,0,.41,0,.69.34-.22,1.18-.61.12-1l-.16.11c-1-.29-2.18-1.37-2-1.49A6.08,6.08,0,0,0,300.69,6.9Z"/><path class="cls-1" d="M295.17,5.22l-2,.42,1,.75-.05-.45C295.27,6.12,295,5.57,295.17,5.22Z"/><polygon class="cls-1" points="284.4 2.54 284.67 1.63 283.53 2.91 284.4 2.54"/><polygon class="cls-1" points="281.84 2.65 281.94 1.85 281.26 2.33 281.84 2.65"/><path class="cls-1" d="M137.24,12.47l-.58.22A2.13,2.13,0,0,0,137.24,12.47Z"/><path class="cls-1" d="M141.43,12.52l.11-.39C141.34,12.35,141.26,12.5,141.43,12.52Z"/><path class="cls-1" d="M218.91,2.74c-.85-.74-1.79-1.89-1.69-1l.26.87A1.93,1.93,0,0,1,218.91,2.74Z"/><path class="cls-1" d="M175.81,7.92l.24.26c.21-.3.4-.57.57-.83C176.38,7.53,176.1,7.72,175.81,7.92Z"/><path class="cls-1" d="M175.21,11.51,174.1,11A4.19,4.19,0,0,0,175.21,11.51Z"/><path class="cls-1" d="M114.33,13.39l-.68.88C114.71,14.27,114.25,13.82,114.33,13.39Z"/><path class="cls-1" d="M255.6,3a5.26,5.26,0,0,0-1.82-.53C254.66,2.94,255.36,3.69,255.6,3Z"/><path class="cls-1" d="M138.89,3.26c-.35.16-.51.33-.5.53C138.76,3.64,139,3.47,138.89,3.26Z"/><path class="cls-1" d="M251.68,2.45c.12.08.25.13.38.2a4.73,4.73,0,0,1,1.72-.21A1.68,1.68,0,0,0,251.68,2.45Z"/><path class="cls-1" d="M31.24,12.67a1.08,1.08,0,0,1-.18-.11C31,12.68,31.12,12.69,31.24,12.67Z"/><path class="cls-1" d="M7,3.91a6.9,6.9,0,0,1,1-.06A2,2,0,0,0,7,3.91Z"/><path class="cls-1" d="M271.53,2.27c.54-.06.09-.1,0,0Z"/><path class="cls-1" d="M274.17,5.7a.57.57,0,0,0-.21.42A.72.72,0,0,1,274.17,5.7Z"/><path class="cls-1" d="M246.26,7.85h0C246.38,8,246.35,8,246.26,7.85Z"/><path class="cls-1" d="M272.35,2.66a4.09,4.09,0,0,0-.7-.26A3,3,0,0,0,272.35,2.66Z"/><path class="cls-1" d="M272.24,2.25l.47.09C272.78,2.19,272.72,2.1,272.24,2.25Z"/><path class="cls-1" d="M270.77,2.31a3.6,3.6,0,0,1,.88.09c-.1,0-.15-.1-.12-.13Z"/><path class="cls-1" d="M75.76,10.35l-.12-.09C75.1,10.62,75.34,10.57,75.76,10.35Z"/><path class="cls-1" d="M204.76,11.75s0,0,.06-.05l-.08,0Z"/><path class="cls-1" d="M202.81,12.39c.83-1.08,1.3-.94,1.93-.72l-.64-2.5Z"/><path class="cls-1" d="M127.2,12.72l1.37.78c-1.66,1.28-2.86.84-1.57,1.93.2-2.71,5.33-.27,5.52-3l.9.57c-.26,0-.3.14-.55.11,1.75,1.3,1.3-2,3.57-1.58.79.21,1.34.6.8.93L139,11.8c.51,0,.38.52-.13.47l2.69-.22,0,.08a10.94,10.94,0,0,1,1.67-1.36c.68.39-.34.28-.17.62l1.49-.66c.6.71-.63,1.39-1.65,1.29,1.38,2.71,1.23-.68,4.22.9l-1.4.35c.9,1.54,2,1,3.58,1.94-.37-.5-3.17-2.42-1.56-3.1a1.87,1.87,0,0,0,1.92-.24c0,1,.86.73,1.92.67l-.07,1.28c1.15-.37,1.06-1,1.73-1.6,1.28.13,1.55,1.12,1.85,2,2.05.2-1.42-1.59,1-1.83,1.71.49,2.9,0,4.94-.8,1.19.44-.21.78.22,1.15l1.06-1c.26,0,.17.34.13.5.89-.39.08-1.28,1.48-1.62.37-1.41,2.87,2,4.61.45.42.37-.21.79-.08,1.28a13.26,13.26,0,0,0,4-2.17l1.67.84c-1.22-1,.34-2.1,1.71-3a13.39,13.39,0,0,0-1.06-1.07l2.19-.68c.26.21,0,.65-.32,1.18.15-.11.29-.21.4-.31.78.48.38,1.21-.18,1.93-.27-.25-.53-.52-.79-.79a3.78,3.78,0,0,0-.93,2.39,1.52,1.52,0,0,1,.72-.35c-.14.21-.23.4-.17.53s.3-.15.66-.48l.5,1.43.12-.57,2.86.9c2-1.44,3.82-3.55,7.06-4.14-.8,1-.17,1.71-.21,3-.89-1.32-2.52.55-4.2.29.88.13.69.72.46.93l3-1.19c-.07,1,.64.76,1.42,1.18-.59-2,2.24-1.34,3.46-2,.07.67-.22,1.36-1.71,1.2,1.64,1.5,2.12-2.36,3.74-1.08-.37,0-.56-.08-.71.26.85-.6,2.93-.13,2.44.46h-.36c2.41.24,7.35,0,7.71-1.68a13.76,13.76,0,0,1-.47,2.39l4.31-5.72c-.38,1.46,1.08,4.94-.93,5.76a3,3,0,0,0,2.5-.06c-.39-.21-1-2.11-.44-2.25,1.47,1.63,1,.87,2.83,2.26-.58-.31.07-2.6,1-2.53-.15.34.07,2.26-.26,2.5l2.31-2.25c-.58.41-.11,1.91.41,2.54-.24-.44,2,0,2.62-.18l-1-.52c2.61.34,2.57-3.16,5.16-3.05-.31.47-.77,2.86.55,3.15.6-1.16,2.67-5.54,5-6.43l.44.66,1.75-.75a41.35,41.35,0,0,1-5.84,6.8c1,.52.27.77,1.74.71.51.62-.8.94-1.23,1l3.4.39c-.15-1.34,2.61-1.34,2.48-2.46l-3.7,1.39c-.15-1.34,2.14-3.82,4.55-3.58.61.54-.46,2.39-.41,2.84.32-.46,2.29-.88,2.51-.55l-1,.72c1.34.5,2.19-1.79,3.81-.5.55.08,1.66,1.73,1.76.93-.91-1.53-1.09-6.28-.48-7.43a18.47,18.47,0,0,1,3.56,2.22c.91,1.21-1.38,2.87-.6,3.9,0-.36.54-.82.75-1,.59.31-.24,1.14,1,1,.21-1.36,2.59.12.6-1.15,1.25-.39,1.32.28,2.78.22-.46-.88,1.31-3,2.56-3.39a1.66,1.66,0,0,0,.34,1c2.55.12,3.92.74,6.3.75.22.33,1.36.73.87,1.32a2.26,2.26,0,0,1,1.39-.74c1.42,1.18-1.63.18-.55,1.6.09-.79,1.9-1.09,2.94-1.59-.32-1.22-2.41-.23-3.46.26,0-1.69,1.82-3.45,4.3-4.23,2-.42.86,1.09,1.2.85,3.71.29,3.16-2.95,6.24-1.73,1.22,1.07.05,2.14.33,2.91-1.61.41-2.47-.68-3.56-.64l1.34.51a2.51,2.51,0,0,1-2.17.32c1,1,6.26.18,9.12,1.08.51-.36,1.39-.74,1-1.17l-.91.15c-.83-.87,1.7-1.2.56-1.6,1.21-.61,2.57-1.57,4.28-1.08l.32,1.23c0-.36-1.11-.74-1.59-.36.71-.55,2.62,1.66,3.4,0l-1.2-.85c1.22-.61,2.73-1.92,4.24-1.53-.69-1.21-.35.14-1.42-1.28.93,1.77-3.88-.07-2.38,1.78-1.1-1.64-1.91-.7-3.36-2.1,0,.41.52.78-.76.58a1.54,1.54,0,0,1-.28.35l-.08,0a.18.18,0,0,0,.07,0c-.06.06-.06.07,0,0a1.49,1.49,0,0,1,.65.61c-.63.93-2.65.9-3.34,1.38-.75-.19.32-.46-.09-.89l-1,.72c-.1-.9-2-1.5-.23-2l-1.6,0a3.74,3.74,0,0,0-3-.33c-.75-.19-1.91,1-1.25.29L260,3l0-.23c-2.48-.11-5.1,1.49-7.93-.13A6.11,6.11,0,0,1,249,2.9l-.27-.78c-1.07.27-3.22-.78-3.68,0-1.15-2.09-5.19-.45-7.07-.82l-.07,1a14.1,14.1,0,0,0-4.15.64l.1.9c-1.39.73-3.57-.64-5.76-.55.15-.34.7-.25,1.1-.05-2.62-2-5.53,1.48-7.91,0a1.31,1.31,0,0,1-1.43,0,.24.24,0,0,0,.14,0h-.24c-.26-.15-.53-.33-.82-.47a3.1,3.1,0,0,0,.69.48,7,7,0,0,0-1.83.35l-.29-1-.16,0c-.66-.35-.53.46-.18,1.19a2.92,2.92,0,0,0-.89.58c-.54-1.56-1.79.52-2.52-1.14-.46.81-3.42.61-3.78,2.31,0-.22-.22-.33.14-.34a2.51,2.51,0,0,0-2.19.09l-.32-1.22-1.65,1.64c-1-.74-1.42-1.18-.43-2.12-2.4,1.45-1.95.55-4,2l.1-.79c-.73,0-1.9,1.09-2.34.44-1.64-1.51-8.1-.21-12.3-1.61.81,2.33-2-1-2.12.76-.25-.55-.84-.86-.15-1.34-2.15.54-3.23-.87-4.71.65-.24-.55.46-.81.24-1.13-.17.12-.68.48-.9.15s.31-.47.65-.71c-2.19.1-2.41,1.8-2.57,3.39-1.11-.75-1.66-.65-2.47.4-.38-.52-1-1.07.33-1.26-.76-.07-4.67-.76-4.75.52-.24-.33-1.07-.1-1.27,0a21.23,21.23,0,0,0-3.56-.07l.47.21c-.67,1.54-1.41.34-2.77.53l0-.16c-3.12-1.11-1.35.53-4.42-.74l.16,1c-.28,2.07-2.72-1.22-4.51-.43l.65.55c-1,.71-2.73-2.8-3.71-3.06-.21-.18.34-.29.64-.42C149.66,1.27,151.89,3.74,150,4c-.35-.68.46-1.73-.83-1.85-.64-.55-3.73,2.2-5.49.9.39.52.77,1-.11,1.43-1.36.19-3.68-2-4.91-.32a.62.62,0,0,1-.25-.41c-1,.42-3.38.7-4,1.59-1-3.31-6.47,1.62-6.45-1.44l-3.19.16.08-.31a3.58,3.58,0,0,0-3.49,1.27c-.47-.21-.13-.5-.09-.66-3-.61-3.28-.48-5.79,1l-.26-1c-.68.57-4.32-1.56-7.25-.4a.7.7,0,0,1,.32-.45c-3.29,1.17-7.89-2.75-9.1.86L97,5.35c2.81.28-.42,1.57.73,2.17-1.1.21-2.86-1.09-1.5-1.27l.22.18C97,4.55,93,5.76,93,4.48c-5.54.09-10.93-1-16.12-1l.59,1.46-1.81-.08c-.47-.34-.63-1.15.66-1.09-.68-.82-2.17.7-2.2,1-2.53-.6,1-1.71.21-1.74l-1.06.11.24.17c-.85.59-.93,1.23-2.48,1.16-1-.3-.5-.91-.89-1,0-.11-.13-.16-.59,0l-2.28-.12.91,1.15c-1,.57-2.14-.06-1.09,1.25-1.55-2-8.51-.72-9.46-1.35a7.38,7.38,0,0,1-4.54.73c.43.24.69,1.54-.81,1.38.55-2.68-2.73-1.17-3.94-3.09,1.08,1.27-4.24.31-2.55,2.13-1.24-.22-.07-1-1-1.64-3,1-6.53-.67-10.2-.32-.06.35.56.89-.23,1.41L32.43,3.22c-.73.18-.67,2-2,.81.19.3.46.75,0,.86-7.18-1.72-14.67,1.4-22-1.82,1,.68.33.75-.43.78.49.16,0,.86.09,1.34L5.06,3.87C4.51,5.19,1.79,4,1.47,5.22l1-.23c-1.29,1.5,1.8,3.32,1.61,5.24,1.44-1.7,3.8,2.51,6.16.08.52.39-.45.62-.17,1.06.6-.82,1.32-1,2.66-.62l-.15.2c3.77-.2,5.38.61,9.61,1.15l-.32-.95a3.13,3.13,0,0,1,1.53.67c1-1.44-2.55-.09-1.6-1.67,1.2,1.93,6.41,0,7.22,2.22,1.4,0-.41-1.1,1-1.08l.37.59.35-.76a1.58,1.58,0,0,1,1.41,1.36c-.22-.06-.63.15-.87.19,1.19.7,3.35-.24,3.76,0l-1.34-.37c3.81-.55,8.47.23,12.16-1l-.28-.45c2.81-.82,2.25.49,5.34.11l-.11.11a3.56,3.56,0,0,1,2.29-.62c-.78.52,1.47,1,.44,1.6,3.06-.89,1.51-.7,3.53-2.36l.46.74a2.82,2.82,0,0,1,2.29-1.22c-1.26.64,1,1.13-.43,2,3.24,1.63,4.81-1.63,6.29.74,1.49-2-2.8-1.14-2-1.58C63,9.68,64.9,8.81,65.92,9c1,.05,1.76,2.63,4.36,2.59-.26,0-.28.14-.54.13,1,.53,1.91-.7,3.11.15.67-1.25,1.55.07,1.74-1.52l-2.39.37c1.36-.41,2.62-2.27,4.85-1.37a3.68,3.68,0,0,1-1.29,1c.65.46,1.26-.31,1.93.17-.19,1.58-2.9.34-4.35,1.55.7.67,2.74-1.15,2,.57,1-2.18,2.56.27,4.32-1.39l-.11.95a2.93,2.93,0,0,1,1.37-.58L80,12.85c1.42-1,2.75.92,4.12.35-2.87,0-.65-1.14-1.86-1.84,3.53-1.27,2,2.49,6,2-.54.13-2-.57-1.17-1a5.18,5.18,0,0,1,2.21,1.06c2.62-.2-.41-1,.71-1.56.89,1.16,1.29-.47,2.44-.84v1c3,.62.8-2,3.49-1.26L94.8,12.08l1.4-.35-.29,1.1c1.53-.81,2-.6,3.5-.3-.35-.68.19-1.75,1.52-1.78.9.58-.51.92,1.37.78-.43.61-.89,1.36-1.71.47-.08.32-.42.61-.5.92,1,.66,2.44.15,3.12.14a1.57,1.57,0,0,1-.73-.22l2.71-1.34c.43.36.09.65-.24.94.55-.11.93-.55,1.74-.63-.21.78-.16,1.59-1.31,2L108,12.9c.18.34,1.33.94,1,1.23,1.43.46,3.52-1.53,5.42-.92a1.21,1.21,0,0,1,.7-.41c1.79.18,3.38,1.14,5.5.07l1.2,1.4c1.66-.32-1.63-1.77,1.14-2.3,2-.45.73,1.2,1.42,1.59,1-.71,2.67-2.15,4.46-1C128.22,12.82,127.75,12.61,127.2,12.72Zm20.48-.63c-.4.21-1.19.83-1.48.26C146.65,11.25,147,11.78,147.68,12.09Zm31.14-2.32c-.29.32-.75.16-1.26-.2A1.79,1.79,0,0,1,178.82,9.77Zm86.75-6.72,0,.05C264.65,2.72,265,2.87,265.57,3.05Zm1.84.42a.27.27,0,0,0,.1-.4c-.13.24-.55.26-1,.19C266.63,3.51,266.86,3.69,267.41,3.47ZM70,3.85l.35.25C69.51,4.38,69.73,4.13,70,3.85Z"/><path class="cls-1" d="M175.29,11.09a1.23,1.23,0,0,1-.17-.52C175,10.73,175,10.92,175.29,11.09Z"/><path class="cls-1" d="M114.45,13.22h-.06a.64.64,0,0,0-.06.18Z"/><path class="cls-1" d="M238.93,11.65a1.48,1.48,0,0,1-.73-.5C238.18,11.39,238.35,11.59,238.93,11.65Z"/><path class="cls-1" d="M277.16,1.83,276,2.08A1.57,1.57,0,0,1,277,2.4C277,2.17,276.79,1.85,277.16,1.83Z"/><path class="cls-1" d="M287.38,7.8c.17-.12.36,0,.53-.13l0-.45C287.13,7.25,286.62,7.61,287.38,7.8Z"/><path class="cls-1" d="M278.25,5c.09.81.83.53,1.65.38h-.14C280,4.29,279.12,4.66,278.25,5Z"/><path class="cls-1" d="M280.09,5.4a2.5,2.5,0,0,1,.77,0C281,4.92,280.55,5.28,280.09,5.4Z"/><path class="cls-1" d="M269.74,2.93c.4.21.25-1,.47-.7C270.65,1.19,267.6,3.48,269.74,2.93Z"/><polygon class="cls-1" points="278.91 7.71 278.62 6.71 278.16 7.52 278.91 7.71"/><path class="cls-1" d="M272.4,7l1.32.27c0-.16.15-.26.35-.34C273.26,6.88,272.37,6.68,272.4,7Z"/><path class="cls-1" d="M274.07,6.91a1.87,1.87,0,0,0,1.06-.16A4.13,4.13,0,0,0,274.07,6.91Z"/><polygon class="cls-1" points="277.11 8.01 276.72 7.8 275.79 7.73 277.11 8.01"/><path class="cls-1" d="M258.23,6.78l-1.44.29c-.15.34.25.55.78.42C257.92,7.25,258.45,7.12,258.23,6.78Z"/><path class="cls-1" d="M262.58,9.53c-.39-.21-.42-.43-.63-.76L261.9,10Z"/><path class="cls-1" d="M258.38,9.82c-.14.34-2.08,1-.26.91C258.27,10.39,259.71,10.1,258.38,9.82Z"/><polygon class="cls-1" points="236.71 8.25 237.07 8.23 237.02 6.19 236.71 8.25"/><path class="cls-1" d="M217.6,13.12c1.7.49.4-1.26,1.94-.65.4-.48-1.25-.5-.84-.91C217.67,12.07,217.13,11.78,217.6,13.12Z"/><path class="cls-1" d="M218.7,11.56a4.42,4.42,0,0,0,.52-.31A1.47,1.47,0,0,0,218.7,11.56Z"/><polygon class="cls-1" points="3.02 2.82 1.93 2.39 2.63 3.08 3.02 2.82"/><path class="cls-1" d="M.92,4.33.66,3,0,4.21C.25,4.15.73,4,.92,4.33Z"/><path class="cls-1" d="M150.73,14.71l.08-.31c-.17-.34-.43-.37-.94-.42Z"/><polygon class="cls-1" points="135.86 13.74 136.11 13.76 135.64 12.59 135.86 13.74"/><path class="cls-1" d="M123.38,15.23c.51,0,1.11-.21,1.62-.16C123.89,15.28,123.24,13.77,123.38,15.23Z"/></g></g></svg>